<mxfile host="app.diagrams.net" modified="2023-05-30T15:58:14.726Z" agent="Mozilla/5.0 (Windows NT 10.0; Win64; x64; rv:109.0) Gecko/20100101 Firefox/113.0" etag="wOE_Vhqtu3Hoe4iu01Lt" version="21.3.5" type="github">
  <diagram id="C5RBs43oDa-KdzZeNtuy" name="Page-1">
    <mxGraphModel dx="2246" dy="1632" grid="1" gridSize="10" guides="1" tooltips="1" connect="1" arrows="1" fold="1" page="1" pageScale="1" pageWidth="3300" pageHeight="4681" math="0" shadow="0">
      <root>
        <mxCell id="WIyWlLk6GJQsqaUBKTNV-0" />
        <mxCell id="WIyWlLk6GJQsqaUBKTNV-1" parent="WIyWlLk6GJQsqaUBKTNV-0" />
        <mxCell id="3Vpd5qUnarcpiOeI3HFZ-227" style="edgeStyle=orthogonalEdgeStyle;rounded=0;orthogonalLoop=1;jettySize=auto;html=1;entryX=1;entryY=0.5;entryDx=0;entryDy=0;" edge="1" parent="WIyWlLk6GJQsqaUBKTNV-1" source="zkfFHV4jXpPFQw0GAbJ--0" target="1k3d_LjwINiWORwzEv2y-37">
          <mxGeometry relative="1" as="geometry" />
        </mxCell>
        <mxCell id="zkfFHV4jXpPFQw0GAbJ--0" value="Project" style="swimlane;fontStyle=2;align=center;verticalAlign=top;childLayout=stackLayout;horizontal=1;startSize=26;horizontalStack=0;resizeParent=1;resizeLast=0;collapsible=1;marginBottom=0;rounded=0;shadow=0;strokeWidth=1;" parent="WIyWlLk6GJQsqaUBKTNV-1" vertex="1">
          <mxGeometry x="1950" y="1965" width="160" height="268" as="geometry">
            <mxRectangle x="230" y="140" width="160" height="26" as="alternateBounds" />
          </mxGeometry>
        </mxCell>
        <mxCell id="zkfFHV4jXpPFQw0GAbJ--1" value="-projectId; int" style="text;align=left;verticalAlign=top;spacingLeft=4;spacingRight=4;overflow=hidden;rotatable=0;points=[[0,0.5],[1,0.5]];portConstraint=eastwest;" parent="zkfFHV4jXpPFQw0GAbJ--0" vertex="1">
          <mxGeometry y="26" width="160" height="26" as="geometry" />
        </mxCell>
        <mxCell id="zkfFHV4jXpPFQw0GAbJ--2" value="-projectName; String" style="text;align=left;verticalAlign=top;spacingLeft=4;spacingRight=4;overflow=hidden;rotatable=0;points=[[0,0.5],[1,0.5]];portConstraint=eastwest;rounded=0;shadow=0;html=0;" parent="zkfFHV4jXpPFQw0GAbJ--0" vertex="1">
          <mxGeometry y="52" width="160" height="26" as="geometry" />
        </mxCell>
        <mxCell id="zkfFHV4jXpPFQw0GAbJ--3" value="-projectDescription; String" style="text;align=left;verticalAlign=top;spacingLeft=4;spacingRight=4;overflow=hidden;rotatable=0;points=[[0,0.5],[1,0.5]];portConstraint=eastwest;rounded=0;shadow=0;html=0;" parent="zkfFHV4jXpPFQw0GAbJ--0" vertex="1">
          <mxGeometry y="78" width="160" height="26" as="geometry" />
        </mxCell>
        <mxCell id="1k3d_LjwINiWORwzEv2y-18" value="-projectStartDate; LocalDate" style="text;align=left;verticalAlign=top;spacingLeft=4;spacingRight=4;overflow=hidden;rotatable=0;points=[[0,0.5],[1,0.5]];portConstraint=eastwest;rounded=0;shadow=0;html=0;" parent="zkfFHV4jXpPFQw0GAbJ--0" vertex="1">
          <mxGeometry y="104" width="160" height="26" as="geometry" />
        </mxCell>
        <mxCell id="1k3d_LjwINiWORwzEv2y-19" value="-projectEndDate; LocalDate" style="text;align=left;verticalAlign=top;spacingLeft=4;spacingRight=4;overflow=hidden;rotatable=0;points=[[0,0.5],[1,0.5]];portConstraint=eastwest;rounded=0;shadow=0;html=0;" parent="zkfFHV4jXpPFQw0GAbJ--0" vertex="1">
          <mxGeometry y="130" width="160" height="26" as="geometry" />
        </mxCell>
        <mxCell id="1k3d_LjwINiWORwzEv2y-20" value="-userId; int" style="text;align=left;verticalAlign=top;spacingLeft=4;spacingRight=4;overflow=hidden;rotatable=0;points=[[0,0.5],[1,0.5]];portConstraint=eastwest;rounded=0;shadow=0;html=0;" parent="zkfFHV4jXpPFQw0GAbJ--0" vertex="1">
          <mxGeometry y="156" width="160" height="26" as="geometry" />
        </mxCell>
        <mxCell id="1k3d_LjwINiWORwzEv2y-21" value="-daysToStart; int" style="text;align=left;verticalAlign=top;spacingLeft=4;spacingRight=4;overflow=hidden;rotatable=0;points=[[0,0.5],[1,0.5]];portConstraint=eastwest;rounded=0;shadow=0;html=0;" parent="zkfFHV4jXpPFQw0GAbJ--0" vertex="1">
          <mxGeometry y="182" width="160" height="26" as="geometry" />
        </mxCell>
        <mxCell id="1k3d_LjwINiWORwzEv2y-22" value="-daysLeft; int" style="text;align=left;verticalAlign=top;spacingLeft=4;spacingRight=4;overflow=hidden;rotatable=0;points=[[0,0.5],[1,0.5]];portConstraint=eastwest;rounded=0;shadow=0;html=0;" parent="zkfFHV4jXpPFQw0GAbJ--0" vertex="1">
          <mxGeometry y="208" width="160" height="26" as="geometry" />
        </mxCell>
        <mxCell id="zkfFHV4jXpPFQw0GAbJ--4" value="" style="line;html=1;strokeWidth=1;align=left;verticalAlign=middle;spacingTop=-1;spacingLeft=3;spacingRight=3;rotatable=0;labelPosition=right;points=[];portConstraint=eastwest;" parent="zkfFHV4jXpPFQw0GAbJ--0" vertex="1">
          <mxGeometry y="234" width="160" height="8" as="geometry" />
        </mxCell>
        <mxCell id="3Vpd5qUnarcpiOeI3HFZ-216" value="getters &amp; setters" style="text;align=left;verticalAlign=top;spacingLeft=4;spacingRight=4;overflow=hidden;rotatable=0;points=[[0,0.5],[1,0.5]];portConstraint=eastwest;rounded=0;shadow=0;html=0;" vertex="1" parent="zkfFHV4jXpPFQw0GAbJ--0">
          <mxGeometry y="242" width="160" height="26" as="geometry" />
        </mxCell>
        <mxCell id="3Vpd5qUnarcpiOeI3HFZ-226" style="edgeStyle=orthogonalEdgeStyle;rounded=0;orthogonalLoop=1;jettySize=auto;html=1;entryX=1;entryY=0.5;entryDx=0;entryDy=0;" edge="1" parent="WIyWlLk6GJQsqaUBKTNV-1" source="1k3d_LjwINiWORwzEv2y-6" target="1k3d_LjwINiWORwzEv2y-19">
          <mxGeometry relative="1" as="geometry" />
        </mxCell>
        <mxCell id="1k3d_LjwINiWORwzEv2y-6" value="User" style="swimlane;fontStyle=2;align=center;verticalAlign=top;childLayout=stackLayout;horizontal=1;startSize=26;horizontalStack=0;resizeParent=1;resizeLast=0;collapsible=1;marginBottom=0;rounded=0;shadow=0;strokeWidth=1;" parent="WIyWlLk6GJQsqaUBKTNV-1" vertex="1">
          <mxGeometry x="2190" y="2026" width="160" height="164" as="geometry">
            <mxRectangle x="230" y="140" width="160" height="26" as="alternateBounds" />
          </mxGeometry>
        </mxCell>
        <mxCell id="1k3d_LjwINiWORwzEv2y-7" value="-userId; int" style="text;align=left;verticalAlign=top;spacingLeft=4;spacingRight=4;overflow=hidden;rotatable=0;points=[[0,0.5],[1,0.5]];portConstraint=eastwest;" parent="1k3d_LjwINiWORwzEv2y-6" vertex="1">
          <mxGeometry y="26" width="160" height="26" as="geometry" />
        </mxCell>
        <mxCell id="1k3d_LjwINiWORwzEv2y-8" value="-fullName; String" style="text;align=left;verticalAlign=top;spacingLeft=4;spacingRight=4;overflow=hidden;rotatable=0;points=[[0,0.5],[1,0.5]];portConstraint=eastwest;rounded=0;shadow=0;html=0;" parent="1k3d_LjwINiWORwzEv2y-6" vertex="1">
          <mxGeometry y="52" width="160" height="26" as="geometry" />
        </mxCell>
        <mxCell id="1k3d_LjwINiWORwzEv2y-9" value="-email; String" style="text;align=left;verticalAlign=top;spacingLeft=4;spacingRight=4;overflow=hidden;rotatable=0;points=[[0,0.5],[1,0.5]];portConstraint=eastwest;rounded=0;shadow=0;html=0;" parent="1k3d_LjwINiWORwzEv2y-6" vertex="1">
          <mxGeometry y="78" width="160" height="26" as="geometry" />
        </mxCell>
        <mxCell id="1k3d_LjwINiWORwzEv2y-44" value="-password; String" style="text;align=left;verticalAlign=top;spacingLeft=4;spacingRight=4;overflow=hidden;rotatable=0;points=[[0,0.5],[1,0.5]];portConstraint=eastwest;rounded=0;shadow=0;html=0;" parent="1k3d_LjwINiWORwzEv2y-6" vertex="1">
          <mxGeometry y="104" width="160" height="26" as="geometry" />
        </mxCell>
        <mxCell id="1k3d_LjwINiWORwzEv2y-10" value="" style="line;html=1;strokeWidth=1;align=left;verticalAlign=middle;spacingTop=-1;spacingLeft=3;spacingRight=3;rotatable=0;labelPosition=right;points=[];portConstraint=eastwest;" parent="1k3d_LjwINiWORwzEv2y-6" vertex="1">
          <mxGeometry y="130" width="160" height="8" as="geometry" />
        </mxCell>
        <mxCell id="1k3d_LjwINiWORwzEv2y-11" value="getters &amp; setters" style="text;align=left;verticalAlign=top;spacingLeft=4;spacingRight=4;overflow=hidden;rotatable=0;points=[[0,0.5],[1,0.5]];portConstraint=eastwest;" parent="1k3d_LjwINiWORwzEv2y-6" vertex="1">
          <mxGeometry y="138" width="160" height="26" as="geometry" />
        </mxCell>
        <mxCell id="1k3d_LjwINiWORwzEv2y-12" value="Subtassk" style="swimlane;fontStyle=2;align=center;verticalAlign=top;childLayout=stackLayout;horizontal=1;startSize=26;horizontalStack=0;resizeParent=1;resizeLast=0;collapsible=1;marginBottom=0;rounded=0;shadow=0;strokeWidth=1;" parent="WIyWlLk6GJQsqaUBKTNV-1" vertex="1">
          <mxGeometry x="1470" y="1920" width="160" height="320" as="geometry">
            <mxRectangle x="230" y="140" width="160" height="26" as="alternateBounds" />
          </mxGeometry>
        </mxCell>
        <mxCell id="1k3d_LjwINiWORwzEv2y-13" value="-subtaskId; int" style="text;align=left;verticalAlign=top;spacingLeft=4;spacingRight=4;overflow=hidden;rotatable=0;points=[[0,0.5],[1,0.5]];portConstraint=eastwest;" parent="1k3d_LjwINiWORwzEv2y-12" vertex="1">
          <mxGeometry y="26" width="160" height="26" as="geometry" />
        </mxCell>
        <mxCell id="1k3d_LjwINiWORwzEv2y-14" value="-subtaskName; String" style="text;align=left;verticalAlign=top;spacingLeft=4;spacingRight=4;overflow=hidden;rotatable=0;points=[[0,0.5],[1,0.5]];portConstraint=eastwest;rounded=0;shadow=0;html=0;" parent="1k3d_LjwINiWORwzEv2y-12" vertex="1">
          <mxGeometry y="52" width="160" height="26" as="geometry" />
        </mxCell>
        <mxCell id="1k3d_LjwINiWORwzEv2y-15" value="-subTaskDescription; String" style="text;align=left;verticalAlign=top;spacingLeft=4;spacingRight=4;overflow=hidden;rotatable=0;points=[[0,0.5],[1,0.5]];portConstraint=eastwest;rounded=0;shadow=0;html=0;" parent="1k3d_LjwINiWORwzEv2y-12" vertex="1">
          <mxGeometry y="78" width="160" height="26" as="geometry" />
        </mxCell>
        <mxCell id="1k3d_LjwINiWORwzEv2y-23" value="-subTaskStartDate; LocalDate" style="text;align=left;verticalAlign=top;spacingLeft=4;spacingRight=4;overflow=hidden;rotatable=0;points=[[0,0.5],[1,0.5]];portConstraint=eastwest;rounded=0;shadow=0;html=0;" parent="1k3d_LjwINiWORwzEv2y-12" vertex="1">
          <mxGeometry y="104" width="160" height="26" as="geometry" />
        </mxCell>
        <mxCell id="1k3d_LjwINiWORwzEv2y-24" value="-subTaskEndDate; LocalDate" style="text;align=left;verticalAlign=top;spacingLeft=4;spacingRight=4;overflow=hidden;rotatable=0;points=[[0,0.5],[1,0.5]];portConstraint=eastwest;rounded=0;shadow=0;html=0;" parent="1k3d_LjwINiWORwzEv2y-12" vertex="1">
          <mxGeometry y="130" width="160" height="26" as="geometry" />
        </mxCell>
        <mxCell id="1k3d_LjwINiWORwzEv2y-25" value="-status; String" style="text;align=left;verticalAlign=top;spacingLeft=4;spacingRight=4;overflow=hidden;rotatable=0;points=[[0,0.5],[1,0.5]];portConstraint=eastwest;rounded=0;shadow=0;html=0;" parent="1k3d_LjwINiWORwzEv2y-12" vertex="1">
          <mxGeometry y="156" width="160" height="26" as="geometry" />
        </mxCell>
        <mxCell id="1k3d_LjwINiWORwzEv2y-27" value="-taskId; int" style="text;align=left;verticalAlign=top;spacingLeft=4;spacingRight=4;overflow=hidden;rotatable=0;points=[[0,0.5],[1,0.5]];portConstraint=eastwest;rounded=0;shadow=0;html=0;" parent="1k3d_LjwINiWORwzEv2y-12" vertex="1">
          <mxGeometry y="182" width="160" height="26" as="geometry" />
        </mxCell>
        <mxCell id="1k3d_LjwINiWORwzEv2y-28" value="-daysToStart; int" style="text;align=left;verticalAlign=top;spacingLeft=4;spacingRight=4;overflow=hidden;rotatable=0;points=[[0,0.5],[1,0.5]];portConstraint=eastwest;rounded=0;shadow=0;html=0;" parent="1k3d_LjwINiWORwzEv2y-12" vertex="1">
          <mxGeometry y="208" width="160" height="26" as="geometry" />
        </mxCell>
        <mxCell id="1k3d_LjwINiWORwzEv2y-30" value="-daysToSubtask; int" style="text;align=left;verticalAlign=top;spacingLeft=4;spacingRight=4;overflow=hidden;rotatable=0;points=[[0,0.5],[1,0.5]];portConstraint=eastwest;rounded=0;shadow=0;html=0;" parent="1k3d_LjwINiWORwzEv2y-12" vertex="1">
          <mxGeometry y="234" width="160" height="26" as="geometry" />
        </mxCell>
        <mxCell id="1k3d_LjwINiWORwzEv2y-29" value="-daysLeft; int" style="text;align=left;verticalAlign=top;spacingLeft=4;spacingRight=4;overflow=hidden;rotatable=0;points=[[0,0.5],[1,0.5]];portConstraint=eastwest;rounded=0;shadow=0;html=0;" parent="1k3d_LjwINiWORwzEv2y-12" vertex="1">
          <mxGeometry y="260" width="160" height="26" as="geometry" />
        </mxCell>
        <mxCell id="1k3d_LjwINiWORwzEv2y-16" value="" style="line;html=1;strokeWidth=1;align=left;verticalAlign=middle;spacingTop=-1;spacingLeft=3;spacingRight=3;rotatable=0;labelPosition=right;points=[];portConstraint=eastwest;" parent="1k3d_LjwINiWORwzEv2y-12" vertex="1">
          <mxGeometry y="286" width="160" height="8" as="geometry" />
        </mxCell>
        <mxCell id="1k3d_LjwINiWORwzEv2y-26" value="getters &amp; setters" style="text;align=left;verticalAlign=top;spacingLeft=4;spacingRight=4;overflow=hidden;rotatable=0;points=[[0,0.5],[1,0.5]];portConstraint=eastwest;rounded=0;shadow=0;html=0;" parent="1k3d_LjwINiWORwzEv2y-12" vertex="1">
          <mxGeometry y="294" width="160" height="26" as="geometry" />
        </mxCell>
        <mxCell id="1k3d_LjwINiWORwzEv2y-31" value="Task" style="swimlane;fontStyle=2;align=center;verticalAlign=top;childLayout=stackLayout;horizontal=1;startSize=26;horizontalStack=0;resizeParent=1;resizeLast=0;collapsible=1;marginBottom=0;rounded=0;shadow=0;strokeWidth=1;" parent="WIyWlLk6GJQsqaUBKTNV-1" vertex="1">
          <mxGeometry x="1710" y="1930" width="160" height="320" as="geometry">
            <mxRectangle x="230" y="140" width="160" height="26" as="alternateBounds" />
          </mxGeometry>
        </mxCell>
        <mxCell id="1k3d_LjwINiWORwzEv2y-32" value="-taskId; int" style="text;align=left;verticalAlign=top;spacingLeft=4;spacingRight=4;overflow=hidden;rotatable=0;points=[[0,0.5],[1,0.5]];portConstraint=eastwest;" parent="1k3d_LjwINiWORwzEv2y-31" vertex="1">
          <mxGeometry y="26" width="160" height="26" as="geometry" />
        </mxCell>
        <mxCell id="1k3d_LjwINiWORwzEv2y-33" value="-taskName; String" style="text;align=left;verticalAlign=top;spacingLeft=4;spacingRight=4;overflow=hidden;rotatable=0;points=[[0,0.5],[1,0.5]];portConstraint=eastwest;rounded=0;shadow=0;html=0;" parent="1k3d_LjwINiWORwzEv2y-31" vertex="1">
          <mxGeometry y="52" width="160" height="26" as="geometry" />
        </mxCell>
        <mxCell id="1k3d_LjwINiWORwzEv2y-34" value="-taskDescription; String" style="text;align=left;verticalAlign=top;spacingLeft=4;spacingRight=4;overflow=hidden;rotatable=0;points=[[0,0.5],[1,0.5]];portConstraint=eastwest;rounded=0;shadow=0;html=0;" parent="1k3d_LjwINiWORwzEv2y-31" vertex="1">
          <mxGeometry y="78" width="160" height="26" as="geometry" />
        </mxCell>
        <mxCell id="1k3d_LjwINiWORwzEv2y-35" value="-taskStartDate; LocalDate" style="text;align=left;verticalAlign=top;spacingLeft=4;spacingRight=4;overflow=hidden;rotatable=0;points=[[0,0.5],[1,0.5]];portConstraint=eastwest;rounded=0;shadow=0;html=0;" parent="1k3d_LjwINiWORwzEv2y-31" vertex="1">
          <mxGeometry y="104" width="160" height="26" as="geometry" />
        </mxCell>
        <mxCell id="1k3d_LjwINiWORwzEv2y-36" value="-taskEndDate; LocalDate" style="text;align=left;verticalAlign=top;spacingLeft=4;spacingRight=4;overflow=hidden;rotatable=0;points=[[0,0.5],[1,0.5]];portConstraint=eastwest;rounded=0;shadow=0;html=0;" parent="1k3d_LjwINiWORwzEv2y-31" vertex="1">
          <mxGeometry y="130" width="160" height="26" as="geometry" />
        </mxCell>
        <mxCell id="1k3d_LjwINiWORwzEv2y-37" value="-status; String" style="text;align=left;verticalAlign=top;spacingLeft=4;spacingRight=4;overflow=hidden;rotatable=0;points=[[0,0.5],[1,0.5]];portConstraint=eastwest;rounded=0;shadow=0;html=0;" parent="1k3d_LjwINiWORwzEv2y-31" vertex="1">
          <mxGeometry y="156" width="160" height="26" as="geometry" />
        </mxCell>
        <mxCell id="1k3d_LjwINiWORwzEv2y-38" value="-taskId; int" style="text;align=left;verticalAlign=top;spacingLeft=4;spacingRight=4;overflow=hidden;rotatable=0;points=[[0,0.5],[1,0.5]];portConstraint=eastwest;rounded=0;shadow=0;html=0;" parent="1k3d_LjwINiWORwzEv2y-31" vertex="1">
          <mxGeometry y="182" width="160" height="26" as="geometry" />
        </mxCell>
        <mxCell id="1k3d_LjwINiWORwzEv2y-39" value="-daysToStart; int" style="text;align=left;verticalAlign=top;spacingLeft=4;spacingRight=4;overflow=hidden;rotatable=0;points=[[0,0.5],[1,0.5]];portConstraint=eastwest;rounded=0;shadow=0;html=0;" parent="1k3d_LjwINiWORwzEv2y-31" vertex="1">
          <mxGeometry y="208" width="160" height="26" as="geometry" />
        </mxCell>
        <mxCell id="1k3d_LjwINiWORwzEv2y-40" value="-daysSubtask; int" style="text;align=left;verticalAlign=top;spacingLeft=4;spacingRight=4;overflow=hidden;rotatable=0;points=[[0,0.5],[1,0.5]];portConstraint=eastwest;rounded=0;shadow=0;html=0;" parent="1k3d_LjwINiWORwzEv2y-31" vertex="1">
          <mxGeometry y="234" width="160" height="26" as="geometry" />
        </mxCell>
        <mxCell id="1k3d_LjwINiWORwzEv2y-41" value="-daysLeft; int" style="text;align=left;verticalAlign=top;spacingLeft=4;spacingRight=4;overflow=hidden;rotatable=0;points=[[0,0.5],[1,0.5]];portConstraint=eastwest;rounded=0;shadow=0;html=0;" parent="1k3d_LjwINiWORwzEv2y-31" vertex="1">
          <mxGeometry y="260" width="160" height="26" as="geometry" />
        </mxCell>
        <mxCell id="1k3d_LjwINiWORwzEv2y-42" value="" style="line;html=1;strokeWidth=1;align=left;verticalAlign=middle;spacingTop=-1;spacingLeft=3;spacingRight=3;rotatable=0;labelPosition=right;points=[];portConstraint=eastwest;" parent="1k3d_LjwINiWORwzEv2y-31" vertex="1">
          <mxGeometry y="286" width="160" height="8" as="geometry" />
        </mxCell>
        <mxCell id="1k3d_LjwINiWORwzEv2y-43" value="getters &amp; setters" style="text;align=left;verticalAlign=top;spacingLeft=4;spacingRight=4;overflow=hidden;rotatable=0;points=[[0,0.5],[1,0.5]];portConstraint=eastwest;rounded=0;shadow=0;html=0;" parent="1k3d_LjwINiWORwzEv2y-31" vertex="1">
          <mxGeometry y="294" width="160" height="26" as="geometry" />
        </mxCell>
        <mxCell id="1k3d_LjwINiWORwzEv2y-132" style="edgeStyle=orthogonalEdgeStyle;rounded=0;orthogonalLoop=1;jettySize=auto;html=1;entryX=0.5;entryY=0;entryDx=0;entryDy=0;" parent="WIyWlLk6GJQsqaUBKTNV-1" source="1k3d_LjwINiWORwzEv2y-52" target="1k3d_LjwINiWORwzEv2y-102" edge="1">
          <mxGeometry relative="1" as="geometry" />
        </mxCell>
        <mxCell id="1k3d_LjwINiWORwzEv2y-52" value="LoginController" style="swimlane;fontStyle=0;align=center;verticalAlign=top;childLayout=stackLayout;horizontal=1;startSize=26;horizontalStack=0;resizeParent=1;resizeLast=0;collapsible=1;marginBottom=0;rounded=0;shadow=0;strokeWidth=1;" parent="WIyWlLk6GJQsqaUBKTNV-1" vertex="1">
          <mxGeometry x="1840" y="1080" width="160" height="70" as="geometry">
            <mxRectangle x="340" y="380" width="170" height="26" as="alternateBounds" />
          </mxGeometry>
        </mxCell>
        <mxCell id="1k3d_LjwINiWORwzEv2y-54" value="" style="line;html=1;strokeWidth=1;align=left;verticalAlign=middle;spacingTop=-1;spacingLeft=3;spacingRight=3;rotatable=0;labelPosition=right;points=[];portConstraint=eastwest;" parent="1k3d_LjwINiWORwzEv2y-52" vertex="1">
          <mxGeometry y="26" width="160" height="8" as="geometry" />
        </mxCell>
        <mxCell id="1k3d_LjwINiWORwzEv2y-129" style="edgeStyle=orthogonalEdgeStyle;rounded=0;orthogonalLoop=1;jettySize=auto;html=1;entryX=0.5;entryY=0;entryDx=0;entryDy=0;" parent="WIyWlLk6GJQsqaUBKTNV-1" source="1k3d_LjwINiWORwzEv2y-58" target="1k3d_LjwINiWORwzEv2y-114" edge="1">
          <mxGeometry relative="1" as="geometry" />
        </mxCell>
        <mxCell id="1k3d_LjwINiWORwzEv2y-149" style="edgeStyle=orthogonalEdgeStyle;rounded=0;orthogonalLoop=1;jettySize=auto;html=1;entryX=0;entryY=0.5;entryDx=0;entryDy=0;" parent="WIyWlLk6GJQsqaUBKTNV-1" source="1k3d_LjwINiWORwzEv2y-58" target="1k3d_LjwINiWORwzEv2y-246" edge="1">
          <mxGeometry relative="1" as="geometry">
            <Array as="points">
              <mxPoint x="1230" y="1010" />
              <mxPoint x="850" y="1010" />
              <mxPoint x="850" y="1420" />
            </Array>
          </mxGeometry>
        </mxCell>
        <mxCell id="1k3d_LjwINiWORwzEv2y-163" style="edgeStyle=orthogonalEdgeStyle;rounded=0;orthogonalLoop=1;jettySize=auto;html=1;entryX=0;entryY=0.5;entryDx=0;entryDy=0;" parent="WIyWlLk6GJQsqaUBKTNV-1" source="1k3d_LjwINiWORwzEv2y-58" target="1k3d_LjwINiWORwzEv2y-269" edge="1">
          <mxGeometry relative="1" as="geometry">
            <Array as="points">
              <mxPoint x="1250" y="1000" />
              <mxPoint x="824" y="1000" />
              <mxPoint x="824" y="2253" />
            </Array>
          </mxGeometry>
        </mxCell>
        <mxCell id="1k3d_LjwINiWORwzEv2y-58" value="SubtaskController" style="swimlane;fontStyle=0;align=center;verticalAlign=top;childLayout=stackLayout;horizontal=1;startSize=26;horizontalStack=0;resizeParent=1;resizeLast=0;collapsible=1;marginBottom=0;rounded=0;shadow=0;strokeWidth=1;" parent="WIyWlLk6GJQsqaUBKTNV-1" vertex="1">
          <mxGeometry x="1160" y="1080" width="160" height="70" as="geometry">
            <mxRectangle x="340" y="380" width="170" height="26" as="alternateBounds" />
          </mxGeometry>
        </mxCell>
        <mxCell id="1k3d_LjwINiWORwzEv2y-60" value="" style="line;html=1;strokeWidth=1;align=left;verticalAlign=middle;spacingTop=-1;spacingLeft=3;spacingRight=3;rotatable=0;labelPosition=right;points=[];portConstraint=eastwest;" parent="1k3d_LjwINiWORwzEv2y-58" vertex="1">
          <mxGeometry y="26" width="160" height="8" as="geometry" />
        </mxCell>
        <mxCell id="1k3d_LjwINiWORwzEv2y-130" style="edgeStyle=orthogonalEdgeStyle;rounded=0;orthogonalLoop=1;jettySize=auto;html=1;entryX=0.5;entryY=0;entryDx=0;entryDy=0;" parent="WIyWlLk6GJQsqaUBKTNV-1" source="1k3d_LjwINiWORwzEv2y-61" target="1k3d_LjwINiWORwzEv2y-117" edge="1">
          <mxGeometry relative="1" as="geometry" />
        </mxCell>
        <mxCell id="1k3d_LjwINiWORwzEv2y-204" style="edgeStyle=orthogonalEdgeStyle;rounded=0;orthogonalLoop=1;jettySize=auto;html=1;entryX=0;entryY=0.5;entryDx=0;entryDy=0;" parent="WIyWlLk6GJQsqaUBKTNV-1" source="1k3d_LjwINiWORwzEv2y-61" target="1k3d_LjwINiWORwzEv2y-258" edge="1">
          <mxGeometry relative="1" as="geometry">
            <Array as="points">
              <mxPoint x="1700" y="980" />
              <mxPoint x="780" y="980" />
              <mxPoint x="780" y="1849" />
            </Array>
          </mxGeometry>
        </mxCell>
        <mxCell id="1k3d_LjwINiWORwzEv2y-61" value="TaskController" style="swimlane;fontStyle=0;align=center;verticalAlign=top;childLayout=stackLayout;horizontal=1;startSize=26;horizontalStack=0;resizeParent=1;resizeLast=0;collapsible=1;marginBottom=0;rounded=0;shadow=0;strokeWidth=1;" parent="WIyWlLk6GJQsqaUBKTNV-1" vertex="1">
          <mxGeometry x="1620" y="1080" width="160" height="70" as="geometry">
            <mxRectangle x="340" y="380" width="170" height="26" as="alternateBounds" />
          </mxGeometry>
        </mxCell>
        <mxCell id="1k3d_LjwINiWORwzEv2y-63" value="" style="line;html=1;strokeWidth=1;align=left;verticalAlign=middle;spacingTop=-1;spacingLeft=3;spacingRight=3;rotatable=0;labelPosition=right;points=[];portConstraint=eastwest;" parent="1k3d_LjwINiWORwzEv2y-61" vertex="1">
          <mxGeometry y="26" width="160" height="8" as="geometry" />
        </mxCell>
        <mxCell id="1k3d_LjwINiWORwzEv2y-128" style="edgeStyle=orthogonalEdgeStyle;rounded=0;orthogonalLoop=1;jettySize=auto;html=1;entryX=0.5;entryY=0;entryDx=0;entryDy=0;" parent="WIyWlLk6GJQsqaUBKTNV-1" source="1k3d_LjwINiWORwzEv2y-65" target="1k3d_LjwINiWORwzEv2y-120" edge="1">
          <mxGeometry relative="1" as="geometry" />
        </mxCell>
        <mxCell id="1k3d_LjwINiWORwzEv2y-65" value="UserController" style="swimlane;fontStyle=0;align=center;verticalAlign=top;childLayout=stackLayout;horizontal=1;startSize=26;horizontalStack=0;resizeParent=1;resizeLast=0;collapsible=1;marginBottom=0;rounded=0;shadow=0;strokeWidth=1;" parent="WIyWlLk6GJQsqaUBKTNV-1" vertex="1">
          <mxGeometry x="2089.63" y="1080" width="182.75" height="72" as="geometry">
            <mxRectangle x="340" y="380" width="170" height="26" as="alternateBounds" />
          </mxGeometry>
        </mxCell>
        <mxCell id="1k3d_LjwINiWORwzEv2y-67" value="" style="line;html=1;strokeWidth=1;align=left;verticalAlign=middle;spacingTop=-1;spacingLeft=3;spacingRight=3;rotatable=0;labelPosition=right;points=[];portConstraint=eastwest;" parent="1k3d_LjwINiWORwzEv2y-65" vertex="1">
          <mxGeometry y="26" width="182.75" height="8" as="geometry" />
        </mxCell>
        <mxCell id="1k3d_LjwINiWORwzEv2y-68" value="DoneSubtaskDTO" style="swimlane;fontStyle=0;align=center;verticalAlign=top;childLayout=stackLayout;horizontal=1;startSize=26;horizontalStack=0;resizeParent=1;resizeLast=0;collapsible=1;marginBottom=0;rounded=0;shadow=0;strokeWidth=1;" parent="WIyWlLk6GJQsqaUBKTNV-1" vertex="1">
          <mxGeometry x="870" y="1330" width="160" height="242" as="geometry">
            <mxRectangle x="440" y="-350" width="170" height="26" as="alternateBounds" />
          </mxGeometry>
        </mxCell>
        <mxCell id="1k3d_LjwINiWORwzEv2y-70" value="-subTaskId; int" style="text;align=left;verticalAlign=top;spacingLeft=4;spacingRight=4;overflow=hidden;rotatable=0;points=[[0,0.5],[1,0.5]];portConstraint=eastwest;" parent="1k3d_LjwINiWORwzEv2y-68" vertex="1">
          <mxGeometry y="26" width="160" height="26" as="geometry" />
        </mxCell>
        <mxCell id="1k3d_LjwINiWORwzEv2y-245" value="-subTaskName; String" style="text;align=left;verticalAlign=top;spacingLeft=4;spacingRight=4;overflow=hidden;rotatable=0;points=[[0,0.5],[1,0.5]];portConstraint=eastwest;" parent="1k3d_LjwINiWORwzEv2y-68" vertex="1">
          <mxGeometry y="52" width="160" height="26" as="geometry" />
        </mxCell>
        <mxCell id="1k3d_LjwINiWORwzEv2y-246" value="-subTaskDescription; String" style="text;align=left;verticalAlign=top;spacingLeft=4;spacingRight=4;overflow=hidden;rotatable=0;points=[[0,0.5],[1,0.5]];portConstraint=eastwest;" parent="1k3d_LjwINiWORwzEv2y-68" vertex="1">
          <mxGeometry y="78" width="160" height="26" as="geometry" />
        </mxCell>
        <mxCell id="1k3d_LjwINiWORwzEv2y-247" value="-status; String" style="text;align=left;verticalAlign=top;spacingLeft=4;spacingRight=4;overflow=hidden;rotatable=0;points=[[0,0.5],[1,0.5]];portConstraint=eastwest;" parent="1k3d_LjwINiWORwzEv2y-68" vertex="1">
          <mxGeometry y="104" width="160" height="26" as="geometry" />
        </mxCell>
        <mxCell id="1k3d_LjwINiWORwzEv2y-250" value="-taskId; int" style="text;align=left;verticalAlign=top;spacingLeft=4;spacingRight=4;overflow=hidden;rotatable=0;points=[[0,0.5],[1,0.5]];portConstraint=eastwest;" parent="1k3d_LjwINiWORwzEv2y-68" vertex="1">
          <mxGeometry y="130" width="160" height="26" as="geometry" />
        </mxCell>
        <mxCell id="1k3d_LjwINiWORwzEv2y-251" value="-daysToStart; int" style="text;align=left;verticalAlign=top;spacingLeft=4;spacingRight=4;overflow=hidden;rotatable=0;points=[[0,0.5],[1,0.5]];portConstraint=eastwest;" parent="1k3d_LjwINiWORwzEv2y-68" vertex="1">
          <mxGeometry y="156" width="160" height="26" as="geometry" />
        </mxCell>
        <mxCell id="1k3d_LjwINiWORwzEv2y-252" value="-daysSubtask; int" style="text;align=left;verticalAlign=top;spacingLeft=4;spacingRight=4;overflow=hidden;rotatable=0;points=[[0,0.5],[1,0.5]];portConstraint=eastwest;" parent="1k3d_LjwINiWORwzEv2y-68" vertex="1">
          <mxGeometry y="182" width="160" height="26" as="geometry" />
        </mxCell>
        <mxCell id="1k3d_LjwINiWORwzEv2y-253" value="-daysLeft; int" style="text;align=left;verticalAlign=top;spacingLeft=4;spacingRight=4;overflow=hidden;rotatable=0;points=[[0,0.5],[1,0.5]];portConstraint=eastwest;" parent="1k3d_LjwINiWORwzEv2y-68" vertex="1">
          <mxGeometry y="208" width="160" height="26" as="geometry" />
        </mxCell>
        <mxCell id="1k3d_LjwINiWORwzEv2y-69" value="" style="line;html=1;strokeWidth=1;align=left;verticalAlign=middle;spacingTop=-1;spacingLeft=3;spacingRight=3;rotatable=0;labelPosition=right;points=[];portConstraint=eastwest;" parent="1k3d_LjwINiWORwzEv2y-68" vertex="1">
          <mxGeometry y="234" width="160" height="8" as="geometry" />
        </mxCell>
        <mxCell id="1k3d_LjwINiWORwzEv2y-71" value="DoneProjectDTO" style="swimlane;fontStyle=0;align=center;verticalAlign=top;childLayout=stackLayout;horizontal=1;startSize=26;horizontalStack=0;resizeParent=1;resizeLast=0;collapsible=1;marginBottom=0;rounded=0;shadow=0;strokeWidth=1;" parent="WIyWlLk6GJQsqaUBKTNV-1" vertex="1">
          <mxGeometry x="870" y="1031" width="160" height="270" as="geometry">
            <mxRectangle x="930" y="1030" width="170" height="26" as="alternateBounds" />
          </mxGeometry>
        </mxCell>
        <mxCell id="1k3d_LjwINiWORwzEv2y-73" value="-projectId: int" style="text;align=left;verticalAlign=top;spacingLeft=4;spacingRight=4;overflow=hidden;rotatable=0;points=[[0,0.5],[1,0.5]];portConstraint=eastwest;" parent="1k3d_LjwINiWORwzEv2y-71" vertex="1">
          <mxGeometry y="26" width="160" height="26" as="geometry" />
        </mxCell>
        <mxCell id="1k3d_LjwINiWORwzEv2y-234" value="-projectName; String" style="text;align=left;verticalAlign=top;spacingLeft=4;spacingRight=4;overflow=hidden;rotatable=0;points=[[0,0.5],[1,0.5]];portConstraint=eastwest;" parent="1k3d_LjwINiWORwzEv2y-71" vertex="1">
          <mxGeometry y="52" width="160" height="26" as="geometry" />
        </mxCell>
        <mxCell id="1k3d_LjwINiWORwzEv2y-237" value="-projectDescription; String" style="text;align=left;verticalAlign=top;spacingLeft=4;spacingRight=4;overflow=hidden;rotatable=0;points=[[0,0.5],[1,0.5]];portConstraint=eastwest;" parent="1k3d_LjwINiWORwzEv2y-71" vertex="1">
          <mxGeometry y="78" width="160" height="26" as="geometry" />
        </mxCell>
        <mxCell id="1k3d_LjwINiWORwzEv2y-238" value="-projectStartDate; localDate" style="text;align=left;verticalAlign=top;spacingLeft=4;spacingRight=4;overflow=hidden;rotatable=0;points=[[0,0.5],[1,0.5]];portConstraint=eastwest;" parent="1k3d_LjwINiWORwzEv2y-71" vertex="1">
          <mxGeometry y="104" width="160" height="26" as="geometry" />
        </mxCell>
        <mxCell id="1k3d_LjwINiWORwzEv2y-239" value="-projectendDate; localDate" style="text;align=left;verticalAlign=top;spacingLeft=4;spacingRight=4;overflow=hidden;rotatable=0;points=[[0,0.5],[1,0.5]];portConstraint=eastwest;" parent="1k3d_LjwINiWORwzEv2y-71" vertex="1">
          <mxGeometry y="130" width="160" height="26" as="geometry" />
        </mxCell>
        <mxCell id="1k3d_LjwINiWORwzEv2y-240" value="-userId; int" style="text;align=left;verticalAlign=top;spacingLeft=4;spacingRight=4;overflow=hidden;rotatable=0;points=[[0,0.5],[1,0.5]];portConstraint=eastwest;" parent="1k3d_LjwINiWORwzEv2y-71" vertex="1">
          <mxGeometry y="156" width="160" height="26" as="geometry" />
        </mxCell>
        <mxCell id="1k3d_LjwINiWORwzEv2y-242" value="-daysToStart; int" style="text;align=left;verticalAlign=top;spacingLeft=4;spacingRight=4;overflow=hidden;rotatable=0;points=[[0,0.5],[1,0.5]];portConstraint=eastwest;" parent="1k3d_LjwINiWORwzEv2y-71" vertex="1">
          <mxGeometry y="182" width="160" height="26" as="geometry" />
        </mxCell>
        <mxCell id="1k3d_LjwINiWORwzEv2y-243" value="-daysForProject; int" style="text;align=left;verticalAlign=top;spacingLeft=4;spacingRight=4;overflow=hidden;rotatable=0;points=[[0,0.5],[1,0.5]];portConstraint=eastwest;" parent="1k3d_LjwINiWORwzEv2y-71" vertex="1">
          <mxGeometry y="208" width="160" height="26" as="geometry" />
        </mxCell>
        <mxCell id="1k3d_LjwINiWORwzEv2y-244" value="-projectUsedDays; int" style="text;align=left;verticalAlign=top;spacingLeft=4;spacingRight=4;overflow=hidden;rotatable=0;points=[[0,0.5],[1,0.5]];portConstraint=eastwest;" parent="1k3d_LjwINiWORwzEv2y-71" vertex="1">
          <mxGeometry y="234" width="160" height="26" as="geometry" />
        </mxCell>
        <mxCell id="1k3d_LjwINiWORwzEv2y-72" value="" style="line;html=1;strokeWidth=1;align=left;verticalAlign=middle;spacingTop=-1;spacingLeft=3;spacingRight=3;rotatable=0;labelPosition=right;points=[];portConstraint=eastwest;" parent="1k3d_LjwINiWORwzEv2y-71" vertex="1">
          <mxGeometry y="260" width="160" height="8" as="geometry" />
        </mxCell>
        <mxCell id="1k3d_LjwINiWORwzEv2y-74" value="DoneTaskDTO" style="swimlane;fontStyle=0;align=center;verticalAlign=top;childLayout=stackLayout;horizontal=1;startSize=26;horizontalStack=0;resizeParent=1;resizeLast=0;collapsible=1;marginBottom=0;rounded=0;shadow=0;strokeWidth=1;" parent="WIyWlLk6GJQsqaUBKTNV-1" vertex="1">
          <mxGeometry x="865" y="1680" width="170" height="372" as="geometry">
            <mxRectangle x="340" y="380" width="170" height="26" as="alternateBounds" />
          </mxGeometry>
        </mxCell>
        <mxCell id="1k3d_LjwINiWORwzEv2y-76" value="-taskId; int" style="text;align=left;verticalAlign=top;spacingLeft=4;spacingRight=4;overflow=hidden;rotatable=0;points=[[0,0.5],[1,0.5]];portConstraint=eastwest;" parent="1k3d_LjwINiWORwzEv2y-74" vertex="1">
          <mxGeometry y="26" width="170" height="26" as="geometry" />
        </mxCell>
        <mxCell id="1k3d_LjwINiWORwzEv2y-255" value="-taskName; String" style="text;align=left;verticalAlign=top;spacingLeft=4;spacingRight=4;overflow=hidden;rotatable=0;points=[[0,0.5],[1,0.5]];portConstraint=eastwest;" parent="1k3d_LjwINiWORwzEv2y-74" vertex="1">
          <mxGeometry y="52" width="170" height="26" as="geometry" />
        </mxCell>
        <mxCell id="1k3d_LjwINiWORwzEv2y-256" value="-taskDescription; String" style="text;align=left;verticalAlign=top;spacingLeft=4;spacingRight=4;overflow=hidden;rotatable=0;points=[[0,0.5],[1,0.5]];portConstraint=eastwest;" parent="1k3d_LjwINiWORwzEv2y-74" vertex="1">
          <mxGeometry y="78" width="170" height="26" as="geometry" />
        </mxCell>
        <mxCell id="1k3d_LjwINiWORwzEv2y-276" value="-taskStartDate; LocalDate" style="text;align=left;verticalAlign=top;spacingLeft=4;spacingRight=4;overflow=hidden;rotatable=0;points=[[0,0.5],[1,0.5]];portConstraint=eastwest;" parent="1k3d_LjwINiWORwzEv2y-74" vertex="1">
          <mxGeometry y="104" width="170" height="26" as="geometry" />
        </mxCell>
        <mxCell id="1k3d_LjwINiWORwzEv2y-277" value="-taskEndDate; LocalDate" style="text;align=left;verticalAlign=top;spacingLeft=4;spacingRight=4;overflow=hidden;rotatable=0;points=[[0,0.5],[1,0.5]];portConstraint=eastwest;" parent="1k3d_LjwINiWORwzEv2y-74" vertex="1">
          <mxGeometry y="130" width="170" height="26" as="geometry" />
        </mxCell>
        <mxCell id="1k3d_LjwINiWORwzEv2y-258" value="-status; String" style="text;align=left;verticalAlign=top;spacingLeft=4;spacingRight=4;overflow=hidden;rotatable=0;points=[[0,0.5],[1,0.5]];portConstraint=eastwest;" parent="1k3d_LjwINiWORwzEv2y-74" vertex="1">
          <mxGeometry y="156" width="170" height="26" as="geometry" />
        </mxCell>
        <mxCell id="1k3d_LjwINiWORwzEv2y-257" value="-projectId; int" style="text;align=left;verticalAlign=top;spacingLeft=4;spacingRight=4;overflow=hidden;rotatable=0;points=[[0,0.5],[1,0.5]];portConstraint=eastwest;" parent="1k3d_LjwINiWORwzEv2y-74" vertex="1">
          <mxGeometry y="182" width="170" height="26" as="geometry" />
        </mxCell>
        <mxCell id="1k3d_LjwINiWORwzEv2y-260" value="-daysToStart; Int" style="text;align=left;verticalAlign=top;spacingLeft=4;spacingRight=4;overflow=hidden;rotatable=0;points=[[0,0.5],[1,0.5]];portConstraint=eastwest;" parent="1k3d_LjwINiWORwzEv2y-74" vertex="1">
          <mxGeometry y="208" width="170" height="26" as="geometry" />
        </mxCell>
        <mxCell id="1k3d_LjwINiWORwzEv2y-262" value="-daysSubtask; int" style="text;align=left;verticalAlign=top;spacingLeft=4;spacingRight=4;overflow=hidden;rotatable=0;points=[[0,0.5],[1,0.5]];portConstraint=eastwest;" parent="1k3d_LjwINiWORwzEv2y-74" vertex="1">
          <mxGeometry y="234" width="170" height="26" as="geometry" />
        </mxCell>
        <mxCell id="1k3d_LjwINiWORwzEv2y-261" value="-daysLeft; int" style="text;align=left;verticalAlign=top;spacingLeft=4;spacingRight=4;overflow=hidden;rotatable=0;points=[[0,0.5],[1,0.5]];portConstraint=eastwest;" parent="1k3d_LjwINiWORwzEv2y-74" vertex="1">
          <mxGeometry y="260" width="170" height="26" as="geometry" />
        </mxCell>
        <mxCell id="1k3d_LjwINiWORwzEv2y-279" value="-taskCompletedDate; LocalDate" style="text;align=left;verticalAlign=top;spacingLeft=4;spacingRight=4;overflow=hidden;rotatable=0;points=[[0,0.5],[1,0.5]];portConstraint=eastwest;" parent="1k3d_LjwINiWORwzEv2y-74" vertex="1">
          <mxGeometry y="286" width="170" height="26" as="geometry" />
        </mxCell>
        <mxCell id="1k3d_LjwINiWORwzEv2y-264" value="-taskExspectedDays; int" style="text;align=left;verticalAlign=top;spacingLeft=4;spacingRight=4;overflow=hidden;rotatable=0;points=[[0,0.5],[1,0.5]];portConstraint=eastwest;" parent="1k3d_LjwINiWORwzEv2y-74" vertex="1">
          <mxGeometry y="312" width="170" height="26" as="geometry" />
        </mxCell>
        <mxCell id="1k3d_LjwINiWORwzEv2y-265" value="-tasjUsedDays; int" style="text;align=left;verticalAlign=top;spacingLeft=4;spacingRight=4;overflow=hidden;rotatable=0;points=[[0,0.5],[1,0.5]];portConstraint=eastwest;" parent="1k3d_LjwINiWORwzEv2y-74" vertex="1">
          <mxGeometry y="338" width="170" height="26" as="geometry" />
        </mxCell>
        <mxCell id="1k3d_LjwINiWORwzEv2y-75" value="" style="line;html=1;strokeWidth=1;align=left;verticalAlign=middle;spacingTop=-1;spacingLeft=3;spacingRight=3;rotatable=0;labelPosition=right;points=[];portConstraint=eastwest;" parent="1k3d_LjwINiWORwzEv2y-74" vertex="1">
          <mxGeometry y="364" width="170" height="8" as="geometry" />
        </mxCell>
        <mxCell id="1k3d_LjwINiWORwzEv2y-77" value="TaskAndSubtaskDTO" style="swimlane;fontStyle=0;align=center;verticalAlign=top;childLayout=stackLayout;horizontal=1;startSize=26;horizontalStack=0;resizeParent=1;resizeLast=0;collapsible=1;marginBottom=0;rounded=0;shadow=0;strokeWidth=1;" parent="WIyWlLk6GJQsqaUBKTNV-1" vertex="1">
          <mxGeometry x="870" y="2110" width="160" height="320" as="geometry">
            <mxRectangle x="-120" y="1070" width="170" height="26" as="alternateBounds" />
          </mxGeometry>
        </mxCell>
        <mxCell id="1k3d_LjwINiWORwzEv2y-79" value="-id: int" style="text;align=left;verticalAlign=top;spacingLeft=4;spacingRight=4;overflow=hidden;rotatable=0;points=[[0,0.5],[1,0.5]];portConstraint=eastwest;" parent="1k3d_LjwINiWORwzEv2y-77" vertex="1">
          <mxGeometry y="26" width="160" height="26" as="geometry" />
        </mxCell>
        <mxCell id="1k3d_LjwINiWORwzEv2y-266" value="-name; String" style="text;align=left;verticalAlign=top;spacingLeft=4;spacingRight=4;overflow=hidden;rotatable=0;points=[[0,0.5],[1,0.5]];portConstraint=eastwest;" parent="1k3d_LjwINiWORwzEv2y-77" vertex="1">
          <mxGeometry y="52" width="160" height="26" as="geometry" />
        </mxCell>
        <mxCell id="1k3d_LjwINiWORwzEv2y-267" value="-description; String" style="text;align=left;verticalAlign=top;spacingLeft=4;spacingRight=4;overflow=hidden;rotatable=0;points=[[0,0.5],[1,0.5]];portConstraint=eastwest;" parent="1k3d_LjwINiWORwzEv2y-77" vertex="1">
          <mxGeometry y="78" width="160" height="26" as="geometry" />
        </mxCell>
        <mxCell id="1k3d_LjwINiWORwzEv2y-268" value="-startDate; LocalDate" style="text;align=left;verticalAlign=top;spacingLeft=4;spacingRight=4;overflow=hidden;rotatable=0;points=[[0,0.5],[1,0.5]];portConstraint=eastwest;" parent="1k3d_LjwINiWORwzEv2y-77" vertex="1">
          <mxGeometry y="104" width="160" height="26" as="geometry" />
        </mxCell>
        <mxCell id="1k3d_LjwINiWORwzEv2y-269" value="-endDate; LocalDate" style="text;align=left;verticalAlign=top;spacingLeft=4;spacingRight=4;overflow=hidden;rotatable=0;points=[[0,0.5],[1,0.5]];portConstraint=eastwest;" parent="1k3d_LjwINiWORwzEv2y-77" vertex="1">
          <mxGeometry y="130" width="160" height="26" as="geometry" />
        </mxCell>
        <mxCell id="1k3d_LjwINiWORwzEv2y-270" value="-status; String" style="text;align=left;verticalAlign=top;spacingLeft=4;spacingRight=4;overflow=hidden;rotatable=0;points=[[0,0.5],[1,0.5]];portConstraint=eastwest;" parent="1k3d_LjwINiWORwzEv2y-77" vertex="1">
          <mxGeometry y="156" width="160" height="26" as="geometry" />
        </mxCell>
        <mxCell id="1k3d_LjwINiWORwzEv2y-271" value="-projectId; int" style="text;align=left;verticalAlign=top;spacingLeft=4;spacingRight=4;overflow=hidden;rotatable=0;points=[[0,0.5],[1,0.5]];portConstraint=eastwest;" parent="1k3d_LjwINiWORwzEv2y-77" vertex="1">
          <mxGeometry y="182" width="160" height="26" as="geometry" />
        </mxCell>
        <mxCell id="1k3d_LjwINiWORwzEv2y-272" value="-daysToStart; int" style="text;align=left;verticalAlign=top;spacingLeft=4;spacingRight=4;overflow=hidden;rotatable=0;points=[[0,0.5],[1,0.5]];portConstraint=eastwest;" parent="1k3d_LjwINiWORwzEv2y-77" vertex="1">
          <mxGeometry y="208" width="160" height="26" as="geometry" />
        </mxCell>
        <mxCell id="1k3d_LjwINiWORwzEv2y-273" value="-daysTask; int" style="text;align=left;verticalAlign=top;spacingLeft=4;spacingRight=4;overflow=hidden;rotatable=0;points=[[0,0.5],[1,0.5]];portConstraint=eastwest;" parent="1k3d_LjwINiWORwzEv2y-77" vertex="1">
          <mxGeometry y="234" width="160" height="26" as="geometry" />
        </mxCell>
        <mxCell id="1k3d_LjwINiWORwzEv2y-274" value="-daysLeft; int" style="text;align=left;verticalAlign=top;spacingLeft=4;spacingRight=4;overflow=hidden;rotatable=0;points=[[0,0.5],[1,0.5]];portConstraint=eastwest;" parent="1k3d_LjwINiWORwzEv2y-77" vertex="1">
          <mxGeometry y="260" width="160" height="26" as="geometry" />
        </mxCell>
        <mxCell id="1k3d_LjwINiWORwzEv2y-275" value="-subtaskList; List&lt;Subtask&gt;" style="text;align=left;verticalAlign=top;spacingLeft=4;spacingRight=4;overflow=hidden;rotatable=0;points=[[0,0.5],[1,0.5]];portConstraint=eastwest;" parent="1k3d_LjwINiWORwzEv2y-77" vertex="1">
          <mxGeometry y="286" width="160" height="26" as="geometry" />
        </mxCell>
        <mxCell id="1k3d_LjwINiWORwzEv2y-78" value="" style="line;html=1;strokeWidth=1;align=left;verticalAlign=middle;spacingTop=-1;spacingLeft=3;spacingRight=3;rotatable=0;labelPosition=right;points=[];portConstraint=eastwest;" parent="1k3d_LjwINiWORwzEv2y-77" vertex="1">
          <mxGeometry y="312" width="160" height="8" as="geometry" />
        </mxCell>
        <mxCell id="1k3d_LjwINiWORwzEv2y-80" value="DbManager" style="swimlane;fontStyle=0;align=center;verticalAlign=top;childLayout=stackLayout;horizontal=1;startSize=26;horizontalStack=0;resizeParent=1;resizeLast=0;collapsible=1;marginBottom=0;rounded=0;shadow=0;strokeWidth=1;" parent="WIyWlLk6GJQsqaUBKTNV-1" vertex="1">
          <mxGeometry x="1840" y="1721" width="160" height="70" as="geometry">
            <mxRectangle x="340" y="380" width="170" height="26" as="alternateBounds" />
          </mxGeometry>
        </mxCell>
        <mxCell id="1k3d_LjwINiWORwzEv2y-81" value="" style="line;html=1;strokeWidth=1;align=left;verticalAlign=middle;spacingTop=-1;spacingLeft=3;spacingRight=3;rotatable=0;labelPosition=right;points=[];portConstraint=eastwest;" parent="1k3d_LjwINiWORwzEv2y-80" vertex="1">
          <mxGeometry y="26" width="160" height="8" as="geometry" />
        </mxCell>
        <mxCell id="1k3d_LjwINiWORwzEv2y-144" style="edgeStyle=orthogonalEdgeStyle;rounded=0;orthogonalLoop=1;jettySize=auto;html=1;entryX=0.5;entryY=0;entryDx=0;entryDy=0;" parent="WIyWlLk6GJQsqaUBKTNV-1" source="1k3d_LjwINiWORwzEv2y-83" target="1k3d_LjwINiWORwzEv2y-31" edge="1">
          <mxGeometry relative="1" as="geometry">
            <Array as="points">
              <mxPoint x="1700" y="1890" />
              <mxPoint x="1790" y="1890" />
            </Array>
          </mxGeometry>
        </mxCell>
        <mxCell id="1k3d_LjwINiWORwzEv2y-205" style="edgeStyle=orthogonalEdgeStyle;rounded=0;orthogonalLoop=1;jettySize=auto;html=1;entryX=0.912;entryY=0;entryDx=0;entryDy=0;entryPerimeter=0;" parent="WIyWlLk6GJQsqaUBKTNV-1" source="1k3d_LjwINiWORwzEv2y-83" target="1k3d_LjwINiWORwzEv2y-74" edge="1">
          <mxGeometry relative="1" as="geometry">
            <mxPoint x="1020" y="1675" as="targetPoint" />
            <Array as="points">
              <mxPoint x="1680" y="1650" />
              <mxPoint x="1020" y="1650" />
            </Array>
          </mxGeometry>
        </mxCell>
        <mxCell id="1k3d_LjwINiWORwzEv2y-213" style="edgeStyle=orthogonalEdgeStyle;rounded=0;orthogonalLoop=1;jettySize=auto;html=1;entryX=-0.002;entryY=-0.051;entryDx=0;entryDy=0;entryPerimeter=0;" parent="WIyWlLk6GJQsqaUBKTNV-1" source="1k3d_LjwINiWORwzEv2y-83" edge="1">
          <mxGeometry relative="1" as="geometry">
            <mxPoint x="1839.6799999999998" y="1753.674" as="targetPoint" />
            <Array as="points">
              <mxPoint x="1713" y="1754" />
            </Array>
          </mxGeometry>
        </mxCell>
        <mxCell id="1k3d_LjwINiWORwzEv2y-83" value="TaskRepository_DB" style="swimlane;fontStyle=0;align=center;verticalAlign=top;childLayout=stackLayout;horizontal=1;startSize=26;horizontalStack=0;resizeParent=1;resizeLast=0;collapsible=1;marginBottom=0;rounded=0;shadow=0;strokeWidth=1;" parent="WIyWlLk6GJQsqaUBKTNV-1" vertex="1">
          <mxGeometry x="1620" y="1570" width="160" height="70" as="geometry">
            <mxRectangle x="340" y="380" width="170" height="26" as="alternateBounds" />
          </mxGeometry>
        </mxCell>
        <mxCell id="1k3d_LjwINiWORwzEv2y-84" value="" style="line;html=1;strokeWidth=1;align=left;verticalAlign=middle;spacingTop=-1;spacingLeft=3;spacingRight=3;rotatable=0;labelPosition=right;points=[];portConstraint=eastwest;" parent="1k3d_LjwINiWORwzEv2y-83" vertex="1">
          <mxGeometry y="26" width="160" height="8" as="geometry" />
        </mxCell>
        <mxCell id="1k3d_LjwINiWORwzEv2y-210" style="edgeStyle=orthogonalEdgeStyle;rounded=0;orthogonalLoop=1;jettySize=auto;html=1;entryX=0.5;entryY=0;entryDx=0;entryDy=0;" parent="WIyWlLk6GJQsqaUBKTNV-1" source="1k3d_LjwINiWORwzEv2y-89" target="1k3d_LjwINiWORwzEv2y-6" edge="1">
          <mxGeometry relative="1" as="geometry" />
        </mxCell>
        <mxCell id="1k3d_LjwINiWORwzEv2y-211" style="edgeStyle=orthogonalEdgeStyle;rounded=0;orthogonalLoop=1;jettySize=auto;html=1;entryX=1.019;entryY=0.141;entryDx=0;entryDy=0;entryPerimeter=0;" parent="WIyWlLk6GJQsqaUBKTNV-1" source="1k3d_LjwINiWORwzEv2y-89" edge="1">
          <mxGeometry relative="1" as="geometry">
            <mxPoint x="2003.04" y="1758.6660000000002" as="targetPoint" />
            <Array as="points">
              <mxPoint x="2165" y="1758" />
            </Array>
          </mxGeometry>
        </mxCell>
        <mxCell id="1k3d_LjwINiWORwzEv2y-89" value="UserRepository_DB" style="swimlane;fontStyle=0;align=center;verticalAlign=top;childLayout=stackLayout;horizontal=1;startSize=26;horizontalStack=0;resizeParent=1;resizeLast=0;collapsible=1;marginBottom=0;rounded=0;shadow=0;strokeWidth=1;" parent="WIyWlLk6GJQsqaUBKTNV-1" vertex="1">
          <mxGeometry x="2101" y="1570" width="160" height="70" as="geometry">
            <mxRectangle x="340" y="380" width="170" height="26" as="alternateBounds" />
          </mxGeometry>
        </mxCell>
        <mxCell id="1k3d_LjwINiWORwzEv2y-90" value="" style="line;html=1;strokeWidth=1;align=left;verticalAlign=middle;spacingTop=-1;spacingLeft=3;spacingRight=3;rotatable=0;labelPosition=right;points=[];portConstraint=eastwest;" parent="1k3d_LjwINiWORwzEv2y-89" vertex="1">
          <mxGeometry y="26" width="160" height="8" as="geometry" />
        </mxCell>
        <mxCell id="1k3d_LjwINiWORwzEv2y-180" style="edgeStyle=orthogonalEdgeStyle;rounded=0;orthogonalLoop=1;jettySize=auto;html=1;entryX=1;entryY=0.5;entryDx=0;entryDy=0;" parent="WIyWlLk6GJQsqaUBKTNV-1" source="1k3d_LjwINiWORwzEv2y-92" edge="1" target="1k3d_LjwINiWORwzEv2y-270">
          <mxGeometry relative="1" as="geometry">
            <mxPoint x="880" y="2110" as="targetPoint" />
            <Array as="points">
              <mxPoint x="1240" y="1702" />
              <mxPoint x="1150" y="1702" />
              <mxPoint x="1150" y="2279" />
            </Array>
          </mxGeometry>
        </mxCell>
        <mxCell id="1k3d_LjwINiWORwzEv2y-190" style="edgeStyle=orthogonalEdgeStyle;rounded=0;orthogonalLoop=1;jettySize=auto;html=1;entryX=1;entryY=0.5;entryDx=0;entryDy=0;" parent="WIyWlLk6GJQsqaUBKTNV-1" source="1k3d_LjwINiWORwzEv2y-92" target="1k3d_LjwINiWORwzEv2y-250" edge="1">
          <mxGeometry relative="1" as="geometry">
            <mxPoint x="960" y="1402" as="targetPoint" />
            <Array as="points">
              <mxPoint x="1220" y="1473" />
            </Array>
          </mxGeometry>
        </mxCell>
        <mxCell id="1k3d_LjwINiWORwzEv2y-216" style="edgeStyle=orthogonalEdgeStyle;rounded=0;orthogonalLoop=1;jettySize=auto;html=1;entryX=0.5;entryY=1;entryDx=0;entryDy=0;" parent="WIyWlLk6GJQsqaUBKTNV-1" source="1k3d_LjwINiWORwzEv2y-92" target="1k3d_LjwINiWORwzEv2y-80" edge="1">
          <mxGeometry relative="1" as="geometry">
            <Array as="points">
              <mxPoint x="1256" y="1828" />
              <mxPoint x="1920" y="1828" />
            </Array>
          </mxGeometry>
        </mxCell>
        <mxCell id="1k3d_LjwINiWORwzEv2y-92" value="SubtaskRepository_DB" style="swimlane;fontStyle=0;align=center;verticalAlign=top;childLayout=stackLayout;horizontal=1;startSize=26;horizontalStack=0;resizeParent=1;resizeLast=0;collapsible=1;marginBottom=0;rounded=0;shadow=0;strokeWidth=1;" parent="WIyWlLk6GJQsqaUBKTNV-1" vertex="1">
          <mxGeometry x="1160" y="1565" width="160" height="70" as="geometry">
            <mxRectangle x="340" y="380" width="170" height="26" as="alternateBounds" />
          </mxGeometry>
        </mxCell>
        <mxCell id="1k3d_LjwINiWORwzEv2y-93" value="" style="line;html=1;strokeWidth=1;align=left;verticalAlign=middle;spacingTop=-1;spacingLeft=3;spacingRight=3;rotatable=0;labelPosition=right;points=[];portConstraint=eastwest;" parent="1k3d_LjwINiWORwzEv2y-92" vertex="1">
          <mxGeometry y="26" width="160" height="8" as="geometry" />
        </mxCell>
        <mxCell id="1k3d_LjwINiWORwzEv2y-212" style="edgeStyle=orthogonalEdgeStyle;rounded=0;orthogonalLoop=1;jettySize=auto;html=1;entryX=0.5;entryY=0;entryDx=0;entryDy=0;" parent="WIyWlLk6GJQsqaUBKTNV-1" source="1k3d_LjwINiWORwzEv2y-95" target="1k3d_LjwINiWORwzEv2y-80" edge="1">
          <mxGeometry relative="1" as="geometry" />
        </mxCell>
        <mxCell id="1k3d_LjwINiWORwzEv2y-95" value="LoginRepository_DB" style="swimlane;fontStyle=0;align=center;verticalAlign=top;childLayout=stackLayout;horizontal=1;startSize=26;horizontalStack=0;resizeParent=1;resizeLast=0;collapsible=1;marginBottom=0;rounded=0;shadow=0;strokeWidth=1;" parent="WIyWlLk6GJQsqaUBKTNV-1" vertex="1">
          <mxGeometry x="1840" y="1570" width="160" height="70" as="geometry">
            <mxRectangle x="140" y="876" width="170" height="26" as="alternateBounds" />
          </mxGeometry>
        </mxCell>
        <mxCell id="1k3d_LjwINiWORwzEv2y-96" value="" style="line;html=1;strokeWidth=1;align=left;verticalAlign=middle;spacingTop=-1;spacingLeft=3;spacingRight=3;rotatable=0;labelPosition=right;points=[];portConstraint=eastwest;" parent="1k3d_LjwINiWORwzEv2y-95" vertex="1">
          <mxGeometry y="26" width="160" height="8" as="geometry" />
        </mxCell>
        <mxCell id="1k3d_LjwINiWORwzEv2y-127" style="edgeStyle=orthogonalEdgeStyle;rounded=0;orthogonalLoop=1;jettySize=auto;html=1;entryX=0.5;entryY=0;entryDx=0;entryDy=0;" parent="WIyWlLk6GJQsqaUBKTNV-1" source="1k3d_LjwINiWORwzEv2y-102" target="1k3d_LjwINiWORwzEv2y-95" edge="1">
          <mxGeometry relative="1" as="geometry" />
        </mxCell>
        <mxCell id="1k3d_LjwINiWORwzEv2y-102" value="LoginService" style="swimlane;fontStyle=0;align=center;verticalAlign=top;childLayout=stackLayout;horizontal=1;startSize=26;horizontalStack=0;resizeParent=1;resizeLast=0;collapsible=1;marginBottom=0;rounded=0;shadow=0;strokeWidth=1;" parent="WIyWlLk6GJQsqaUBKTNV-1" vertex="1">
          <mxGeometry x="1840" y="1406" width="160" height="70" as="geometry">
            <mxRectangle x="340" y="380" width="170" height="26" as="alternateBounds" />
          </mxGeometry>
        </mxCell>
        <mxCell id="1k3d_LjwINiWORwzEv2y-103" value="" style="line;html=1;strokeWidth=1;align=left;verticalAlign=middle;spacingTop=-1;spacingLeft=3;spacingRight=3;rotatable=0;labelPosition=right;points=[];portConstraint=eastwest;" parent="1k3d_LjwINiWORwzEv2y-102" vertex="1">
          <mxGeometry y="26" width="160" height="8" as="geometry" />
        </mxCell>
        <mxCell id="1k3d_LjwINiWORwzEv2y-126" style="edgeStyle=orthogonalEdgeStyle;rounded=0;orthogonalLoop=1;jettySize=auto;html=1;entryX=0.5;entryY=0;entryDx=0;entryDy=0;" parent="WIyWlLk6GJQsqaUBKTNV-1" source="1k3d_LjwINiWORwzEv2y-105" target="1k3d_LjwINiWORwzEv2y-86" edge="1">
          <mxGeometry relative="1" as="geometry" />
        </mxCell>
        <mxCell id="1k3d_LjwINiWORwzEv2y-153" style="edgeStyle=orthogonalEdgeStyle;rounded=0;orthogonalLoop=1;jettySize=auto;html=1;entryX=0.706;entryY=-0.005;entryDx=0;entryDy=0;entryPerimeter=0;" parent="WIyWlLk6GJQsqaUBKTNV-1" source="1k3d_LjwINiWORwzEv2y-114" target="1k3d_LjwINiWORwzEv2y-74" edge="1">
          <mxGeometry relative="1" as="geometry">
            <Array as="points">
              <mxPoint x="1090" y="1380" />
              <mxPoint x="1090" y="1610" />
              <mxPoint x="985" y="1610" />
            </Array>
          </mxGeometry>
        </mxCell>
        <mxCell id="1k3d_LjwINiWORwzEv2y-124" style="edgeStyle=orthogonalEdgeStyle;rounded=0;orthogonalLoop=1;jettySize=auto;html=1;entryX=0.5;entryY=0;entryDx=0;entryDy=0;" parent="WIyWlLk6GJQsqaUBKTNV-1" source="1k3d_LjwINiWORwzEv2y-114" target="1k3d_LjwINiWORwzEv2y-92" edge="1">
          <mxGeometry relative="1" as="geometry">
            <Array as="points">
              <mxPoint x="1240" y="1520" />
              <mxPoint x="1240" y="1520" />
            </Array>
          </mxGeometry>
        </mxCell>
        <mxCell id="1k3d_LjwINiWORwzEv2y-155" style="edgeStyle=orthogonalEdgeStyle;rounded=0;orthogonalLoop=1;jettySize=auto;html=1;entryX=0.624;entryY=-0.005;entryDx=0;entryDy=0;entryPerimeter=0;" parent="WIyWlLk6GJQsqaUBKTNV-1" source="1k3d_LjwINiWORwzEv2y-105" edge="1" target="1k3d_LjwINiWORwzEv2y-74">
          <mxGeometry relative="1" as="geometry">
            <mxPoint x="972" y="1690" as="targetPoint" />
            <Array as="points">
              <mxPoint x="1430" y="1490" />
              <mxPoint x="1070" y="1490" />
              <mxPoint x="1070" y="1590" />
              <mxPoint x="971" y="1590" />
            </Array>
          </mxGeometry>
        </mxCell>
        <mxCell id="1k3d_LjwINiWORwzEv2y-125" style="edgeStyle=orthogonalEdgeStyle;rounded=0;orthogonalLoop=1;jettySize=auto;html=1;entryX=0.5;entryY=0;entryDx=0;entryDy=0;" parent="WIyWlLk6GJQsqaUBKTNV-1" source="1k3d_LjwINiWORwzEv2y-117" target="1k3d_LjwINiWORwzEv2y-83" edge="1">
          <mxGeometry relative="1" as="geometry" />
        </mxCell>
        <mxCell id="1k3d_LjwINiWORwzEv2y-206" style="edgeStyle=orthogonalEdgeStyle;rounded=0;orthogonalLoop=1;jettySize=auto;html=1;" parent="WIyWlLk6GJQsqaUBKTNV-1" source="1k3d_LjwINiWORwzEv2y-117" edge="1">
          <mxGeometry relative="1" as="geometry">
            <mxPoint x="1000" y="1680" as="targetPoint" />
            <Array as="points">
              <mxPoint x="1680" y="1540" />
              <mxPoint x="1110" y="1540" />
              <mxPoint x="1110" y="1620" />
              <mxPoint x="1000" y="1620" />
            </Array>
          </mxGeometry>
        </mxCell>
        <mxCell id="1k3d_LjwINiWORwzEv2y-117" value="Taskkservice" style="swimlane;fontStyle=0;align=center;verticalAlign=top;childLayout=stackLayout;horizontal=1;startSize=26;horizontalStack=0;resizeParent=1;resizeLast=0;collapsible=1;marginBottom=0;rounded=0;shadow=0;strokeWidth=1;" parent="WIyWlLk6GJQsqaUBKTNV-1" vertex="1">
          <mxGeometry x="1620" y="1406" width="160" height="70" as="geometry">
            <mxRectangle x="340" y="380" width="170" height="26" as="alternateBounds" />
          </mxGeometry>
        </mxCell>
        <mxCell id="1k3d_LjwINiWORwzEv2y-118" value="" style="line;html=1;strokeWidth=1;align=left;verticalAlign=middle;spacingTop=-1;spacingLeft=3;spacingRight=3;rotatable=0;labelPosition=right;points=[];portConstraint=eastwest;" parent="1k3d_LjwINiWORwzEv2y-117" vertex="1">
          <mxGeometry y="26" width="160" height="8" as="geometry" />
        </mxCell>
        <mxCell id="1k3d_LjwINiWORwzEv2y-123" style="edgeStyle=orthogonalEdgeStyle;rounded=0;orthogonalLoop=1;jettySize=auto;html=1;entryX=0.5;entryY=0;entryDx=0;entryDy=0;" parent="WIyWlLk6GJQsqaUBKTNV-1" source="1k3d_LjwINiWORwzEv2y-120" target="1k3d_LjwINiWORwzEv2y-89" edge="1">
          <mxGeometry relative="1" as="geometry" />
        </mxCell>
        <mxCell id="1k3d_LjwINiWORwzEv2y-120" value="UserService" style="swimlane;fontStyle=0;align=center;verticalAlign=top;childLayout=stackLayout;horizontal=1;startSize=26;horizontalStack=0;resizeParent=1;resizeLast=0;collapsible=1;marginBottom=0;rounded=0;shadow=0;strokeWidth=1;" parent="WIyWlLk6GJQsqaUBKTNV-1" vertex="1">
          <mxGeometry x="2101" y="1406" width="160" height="70" as="geometry">
            <mxRectangle x="340" y="380" width="170" height="26" as="alternateBounds" />
          </mxGeometry>
        </mxCell>
        <mxCell id="1k3d_LjwINiWORwzEv2y-121" value="" style="line;html=1;strokeWidth=1;align=left;verticalAlign=middle;spacingTop=-1;spacingLeft=3;spacingRight=3;rotatable=0;labelPosition=right;points=[];portConstraint=eastwest;" parent="1k3d_LjwINiWORwzEv2y-120" vertex="1">
          <mxGeometry y="26" width="160" height="8" as="geometry" />
        </mxCell>
        <mxCell id="1k3d_LjwINiWORwzEv2y-157" style="edgeStyle=orthogonalEdgeStyle;rounded=0;orthogonalLoop=1;jettySize=auto;html=1;" parent="WIyWlLk6GJQsqaUBKTNV-1" edge="1">
          <mxGeometry relative="1" as="geometry">
            <mxPoint x="1430" y="1635" as="sourcePoint" />
            <mxPoint x="1031" y="2331" as="targetPoint" />
            <Array as="points">
              <mxPoint x="1430" y="2331" />
            </Array>
          </mxGeometry>
        </mxCell>
        <mxCell id="1k3d_LjwINiWORwzEv2y-158" style="edgeStyle=orthogonalEdgeStyle;rounded=0;orthogonalLoop=1;jettySize=auto;html=1;exitX=0.385;exitY=-0.067;exitDx=0;exitDy=0;exitPerimeter=0;entryX=1.013;entryY=1.038;entryDx=0;entryDy=0;entryPerimeter=0;" parent="WIyWlLk6GJQsqaUBKTNV-1" source="1k3d_LjwINiWORwzEv2y-86" target="1k3d_LjwINiWORwzEv2y-243" edge="1">
          <mxGeometry relative="1" as="geometry">
            <Array as="points">
              <mxPoint x="1432" y="1563" />
              <mxPoint x="1430" y="1520" />
              <mxPoint x="1120" y="1520" />
              <mxPoint x="1120" y="1266" />
            </Array>
            <mxPoint x="1040" y="1260" as="targetPoint" />
          </mxGeometry>
        </mxCell>
        <mxCell id="1k3d_LjwINiWORwzEv2y-166" style="edgeStyle=orthogonalEdgeStyle;rounded=0;orthogonalLoop=1;jettySize=auto;html=1;exitX=0;exitY=0.25;exitDx=0;exitDy=0;entryX=1.013;entryY=0.038;entryDx=0;entryDy=0;entryPerimeter=0;" parent="WIyWlLk6GJQsqaUBKTNV-1" source="1k3d_LjwINiWORwzEv2y-105" target="1k3d_LjwINiWORwzEv2y-243" edge="1">
          <mxGeometry relative="1" as="geometry">
            <mxPoint x="1090" y="1240" as="targetPoint" />
            <Array as="points">
              <mxPoint x="1340" y="1424" />
              <mxPoint x="1340" y="1240" />
            </Array>
          </mxGeometry>
        </mxCell>
        <mxCell id="1k3d_LjwINiWORwzEv2y-178" style="edgeStyle=orthogonalEdgeStyle;rounded=0;orthogonalLoop=1;jettySize=auto;html=1;entryX=0.5;entryY=0;entryDx=0;entryDy=0;" parent="WIyWlLk6GJQsqaUBKTNV-1" source="1k3d_LjwINiWORwzEv2y-86" target="zkfFHV4jXpPFQw0GAbJ--0" edge="1">
          <mxGeometry relative="1" as="geometry">
            <Array as="points">
              <mxPoint x="1450" y="1840" />
              <mxPoint x="2030" y="1840" />
            </Array>
          </mxGeometry>
        </mxCell>
        <mxCell id="1k3d_LjwINiWORwzEv2y-215" style="edgeStyle=orthogonalEdgeStyle;rounded=0;orthogonalLoop=1;jettySize=auto;html=1;entryX=0;entryY=0.5;entryDx=0;entryDy=0;" parent="WIyWlLk6GJQsqaUBKTNV-1" source="1k3d_LjwINiWORwzEv2y-86" edge="1">
          <mxGeometry relative="1" as="geometry">
            <mxPoint x="1840" y="1768" as="targetPoint" />
            <Array as="points">
              <mxPoint x="1469" y="1768" />
            </Array>
          </mxGeometry>
        </mxCell>
        <mxCell id="1k3d_LjwINiWORwzEv2y-86" value="ProjectRepository_DB" style="swimlane;fontStyle=0;align=center;verticalAlign=top;childLayout=stackLayout;horizontal=1;startSize=26;horizontalStack=0;resizeParent=1;resizeLast=0;collapsible=1;marginBottom=0;rounded=0;shadow=0;strokeWidth=1;" parent="WIyWlLk6GJQsqaUBKTNV-1" vertex="1">
          <mxGeometry x="1370" y="1565" width="160" height="70" as="geometry">
            <mxRectangle x="340" y="380" width="170" height="26" as="alternateBounds" />
          </mxGeometry>
        </mxCell>
        <mxCell id="1k3d_LjwINiWORwzEv2y-87" value="" style="line;html=1;strokeWidth=1;align=left;verticalAlign=middle;spacingTop=-1;spacingLeft=3;spacingRight=3;rotatable=0;labelPosition=right;points=[];portConstraint=eastwest;" parent="1k3d_LjwINiWORwzEv2y-86" vertex="1">
          <mxGeometry y="26" width="160" height="8" as="geometry" />
        </mxCell>
        <mxCell id="1k3d_LjwINiWORwzEv2y-200" style="edgeStyle=orthogonalEdgeStyle;rounded=0;orthogonalLoop=1;jettySize=auto;html=1;entryX=1;entryY=0.5;entryDx=0;entryDy=0;" parent="WIyWlLk6GJQsqaUBKTNV-1" source="1k3d_LjwINiWORwzEv2y-114" edge="1" target="1k3d_LjwINiWORwzEv2y-269">
          <mxGeometry relative="1" as="geometry">
            <mxPoint x="880" y="2100" as="targetPoint" />
            <Array as="points">
              <mxPoint x="1220" y="1430" />
              <mxPoint x="1100" y="1430" />
              <mxPoint x="1100" y="2253" />
            </Array>
          </mxGeometry>
        </mxCell>
        <mxCell id="1k3d_LjwINiWORwzEv2y-281" style="edgeStyle=orthogonalEdgeStyle;rounded=0;orthogonalLoop=1;jettySize=auto;html=1;" parent="WIyWlLk6GJQsqaUBKTNV-1" source="1k3d_LjwINiWORwzEv2y-114" edge="1">
          <mxGeometry relative="1" as="geometry">
            <Array as="points">
              <mxPoint x="1080" y="1370" />
              <mxPoint x="1080" y="1400" />
              <mxPoint x="1033" y="1400" />
            </Array>
            <mxPoint x="1030" y="1400" as="targetPoint" />
          </mxGeometry>
        </mxCell>
        <mxCell id="1k3d_LjwINiWORwzEv2y-114" value="SubtaskService" style="swimlane;fontStyle=0;align=center;verticalAlign=top;childLayout=stackLayout;horizontal=1;startSize=26;horizontalStack=0;resizeParent=1;resizeLast=0;collapsible=1;marginBottom=0;rounded=0;shadow=0;strokeWidth=1;" parent="WIyWlLk6GJQsqaUBKTNV-1" vertex="1">
          <mxGeometry x="1160" y="1330" width="160" height="70" as="geometry">
            <mxRectangle x="340" y="380" width="170" height="26" as="alternateBounds" />
          </mxGeometry>
        </mxCell>
        <mxCell id="1k3d_LjwINiWORwzEv2y-115" value="" style="line;html=1;strokeWidth=1;align=left;verticalAlign=middle;spacingTop=-1;spacingLeft=3;spacingRight=3;rotatable=0;labelPosition=right;points=[];portConstraint=eastwest;" parent="1k3d_LjwINiWORwzEv2y-114" vertex="1">
          <mxGeometry y="26" width="160" height="8" as="geometry" />
        </mxCell>
        <mxCell id="1k3d_LjwINiWORwzEv2y-197" style="edgeStyle=orthogonalEdgeStyle;rounded=0;orthogonalLoop=1;jettySize=auto;html=1;" parent="WIyWlLk6GJQsqaUBKTNV-1" source="1k3d_LjwINiWORwzEv2y-55" edge="1">
          <mxGeometry relative="1" as="geometry">
            <Array as="points">
              <mxPoint x="1450" y="1406" />
            </Array>
            <mxPoint x="1450" y="1406" as="targetPoint" />
          </mxGeometry>
        </mxCell>
        <mxCell id="1k3d_LjwINiWORwzEv2y-208" style="edgeStyle=orthogonalEdgeStyle;rounded=0;orthogonalLoop=1;jettySize=auto;html=1;" parent="WIyWlLk6GJQsqaUBKTNV-1" source="1k3d_LjwINiWORwzEv2y-55" edge="1">
          <mxGeometry relative="1" as="geometry">
            <Array as="points">
              <mxPoint x="1470" y="990" />
              <mxPoint x="800" y="990" />
            </Array>
            <mxPoint x="870" y="2280" as="targetPoint" />
          </mxGeometry>
        </mxCell>
        <mxCell id="3Vpd5qUnarcpiOeI3HFZ-4" style="edgeStyle=orthogonalEdgeStyle;rounded=0;orthogonalLoop=1;jettySize=auto;html=1;entryX=1;entryY=0.5;entryDx=0;entryDy=0;" edge="1" parent="WIyWlLk6GJQsqaUBKTNV-1" source="1k3d_LjwINiWORwzEv2y-55" target="1k3d_LjwINiWORwzEv2y-58">
          <mxGeometry relative="1" as="geometry" />
        </mxCell>
        <mxCell id="3Vpd5qUnarcpiOeI3HFZ-8" style="edgeStyle=orthogonalEdgeStyle;rounded=0;orthogonalLoop=1;jettySize=auto;html=1;entryX=1.021;entryY=0.115;entryDx=0;entryDy=0;entryPerimeter=0;" edge="1" parent="WIyWlLk6GJQsqaUBKTNV-1" source="1k3d_LjwINiWORwzEv2y-55" target="1k3d_LjwINiWORwzEv2y-242">
          <mxGeometry relative="1" as="geometry">
            <Array as="points">
              <mxPoint x="1440" y="1215" />
              <mxPoint x="1033" y="1215" />
            </Array>
          </mxGeometry>
        </mxCell>
        <mxCell id="1k3d_LjwINiWORwzEv2y-55" value="ProjectController" style="swimlane;fontStyle=0;align=center;verticalAlign=top;childLayout=stackLayout;horizontal=1;startSize=26;horizontalStack=0;resizeParent=1;resizeLast=0;collapsible=1;marginBottom=0;rounded=0;shadow=0;strokeWidth=1;" parent="WIyWlLk6GJQsqaUBKTNV-1" vertex="1">
          <mxGeometry x="1390" y="1080" width="160" height="70" as="geometry">
            <mxRectangle x="340" y="380" width="170" height="26" as="alternateBounds" />
          </mxGeometry>
        </mxCell>
        <mxCell id="1k3d_LjwINiWORwzEv2y-57" value="" style="line;html=1;strokeWidth=1;align=left;verticalAlign=middle;spacingTop=-1;spacingLeft=3;spacingRight=3;rotatable=0;labelPosition=right;points=[];portConstraint=eastwest;" parent="1k3d_LjwINiWORwzEv2y-55" vertex="1">
          <mxGeometry y="26" width="160" height="8" as="geometry" />
        </mxCell>
        <mxCell id="1k3d_LjwINiWORwzEv2y-179" style="edgeStyle=orthogonalEdgeStyle;rounded=0;orthogonalLoop=1;jettySize=auto;html=1;entryX=0.563;entryY=0.004;entryDx=0;entryDy=0;entryPerimeter=0;" parent="WIyWlLk6GJQsqaUBKTNV-1" source="1k3d_LjwINiWORwzEv2y-105" target="1k3d_LjwINiWORwzEv2y-12" edge="1">
          <mxGeometry relative="1" as="geometry">
            <Array as="points">
              <mxPoint x="1560" y="1441" />
            </Array>
          </mxGeometry>
        </mxCell>
        <mxCell id="1k3d_LjwINiWORwzEv2y-201" style="edgeStyle=orthogonalEdgeStyle;rounded=0;orthogonalLoop=1;jettySize=auto;html=1;" parent="WIyWlLk6GJQsqaUBKTNV-1" source="1k3d_LjwINiWORwzEv2y-105" edge="1">
          <mxGeometry relative="1" as="geometry">
            <mxPoint x="1030" y="2305" as="targetPoint" />
            <Array as="points">
              <mxPoint x="1550" y="1450" />
              <mxPoint x="1550" y="1727" />
              <mxPoint x="1170" y="1727" />
              <mxPoint x="1170" y="2305" />
              <mxPoint x="1035" y="2305" />
            </Array>
          </mxGeometry>
        </mxCell>
        <mxCell id="1k3d_LjwINiWORwzEv2y-105" value="ProjectService" style="swimlane;fontStyle=0;align=center;verticalAlign=top;childLayout=stackLayout;horizontal=1;startSize=26;horizontalStack=0;resizeParent=1;resizeLast=0;collapsible=1;marginBottom=0;rounded=0;shadow=0;strokeWidth=1;" parent="WIyWlLk6GJQsqaUBKTNV-1" vertex="1">
          <mxGeometry x="1370" y="1406" width="160" height="70" as="geometry">
            <mxRectangle x="340" y="380" width="170" height="26" as="alternateBounds" />
          </mxGeometry>
        </mxCell>
        <mxCell id="1k3d_LjwINiWORwzEv2y-106" value="" style="line;html=1;strokeWidth=1;align=left;verticalAlign=middle;spacingTop=-1;spacingLeft=3;spacingRight=3;rotatable=0;labelPosition=right;points=[];portConstraint=eastwest;" parent="1k3d_LjwINiWORwzEv2y-105" vertex="1">
          <mxGeometry y="26" width="160" height="8" as="geometry" />
        </mxCell>
        <mxCell id="1k3d_LjwINiWORwzEv2y-188" style="edgeStyle=orthogonalEdgeStyle;rounded=0;orthogonalLoop=1;jettySize=auto;html=1;entryX=0;entryY=0.5;entryDx=0;entryDy=0;" parent="WIyWlLk6GJQsqaUBKTNV-1" edge="1">
          <mxGeometry relative="1" as="geometry">
            <mxPoint x="1320" y="1612" as="sourcePoint" />
            <mxPoint x="1370" y="1612" as="targetPoint" />
          </mxGeometry>
        </mxCell>
        <mxCell id="1k3d_LjwINiWORwzEv2y-249" style="edgeStyle=orthogonalEdgeStyle;rounded=0;orthogonalLoop=1;jettySize=auto;html=1;entryX=1;entryY=0.5;entryDx=0;entryDy=0;" parent="WIyWlLk6GJQsqaUBKTNV-1" target="1k3d_LjwINiWORwzEv2y-246" edge="1">
          <mxGeometry relative="1" as="geometry">
            <mxPoint x="1370" y="1453" as="sourcePoint" />
            <Array as="points">
              <mxPoint x="1080" y="1453" />
              <mxPoint x="1080" y="1421" />
            </Array>
          </mxGeometry>
        </mxCell>
        <mxCell id="1k3d_LjwINiWORwzEv2y-280" style="edgeStyle=orthogonalEdgeStyle;rounded=0;orthogonalLoop=1;jettySize=auto;html=1;entryX=0;entryY=0.5;entryDx=0;entryDy=0;" parent="WIyWlLk6GJQsqaUBKTNV-1" source="1k3d_LjwINiWORwzEv2y-255" target="1k3d_LjwINiWORwzEv2y-92" edge="1">
          <mxGeometry relative="1" as="geometry">
            <Array as="points">
              <mxPoint x="1130" y="1745" />
              <mxPoint x="1130" y="1600" />
            </Array>
          </mxGeometry>
        </mxCell>
        <mxCell id="3Vpd5qUnarcpiOeI3HFZ-1" style="edgeStyle=orthogonalEdgeStyle;rounded=0;orthogonalLoop=1;jettySize=auto;html=1;exitX=1.013;exitY=0.192;exitDx=0;exitDy=0;exitPerimeter=0;" edge="1" parent="WIyWlLk6GJQsqaUBKTNV-1" source="1k3d_LjwINiWORwzEv2y-245">
          <mxGeometry relative="1" as="geometry">
            <mxPoint x="1160" y="1360" as="targetPoint" />
            <Array as="points">
              <mxPoint x="1070" y="1387" />
              <mxPoint x="1070" y="1360" />
              <mxPoint x="1160" y="1360" />
            </Array>
          </mxGeometry>
        </mxCell>
        <mxCell id="3Vpd5qUnarcpiOeI3HFZ-191" value="Repositories" style="swimlane;fontStyle=0;align=center;verticalAlign=top;childLayout=stackLayout;horizontal=1;startSize=26;horizontalStack=0;resizeParent=1;resizeLast=0;collapsible=1;marginBottom=0;rounded=0;shadow=0;strokeWidth=1;" vertex="1" parent="WIyWlLk6GJQsqaUBKTNV-1">
          <mxGeometry x="1890" y="2800" width="160" height="70" as="geometry">
            <mxRectangle x="340" y="380" width="170" height="26" as="alternateBounds" />
          </mxGeometry>
        </mxCell>
        <mxCell id="3Vpd5qUnarcpiOeI3HFZ-192" value="" style="line;html=1;strokeWidth=1;align=left;verticalAlign=middle;spacingTop=-1;spacingLeft=3;spacingRight=3;rotatable=0;labelPosition=right;points=[];portConstraint=eastwest;" vertex="1" parent="3Vpd5qUnarcpiOeI3HFZ-191">
          <mxGeometry y="26" width="160" height="8" as="geometry" />
        </mxCell>
        <mxCell id="3Vpd5qUnarcpiOeI3HFZ-193" value="Entities" style="swimlane;fontStyle=0;align=center;verticalAlign=top;childLayout=stackLayout;horizontal=1;startSize=26;horizontalStack=0;resizeParent=1;resizeLast=0;collapsible=1;marginBottom=0;rounded=0;shadow=0;strokeWidth=1;" vertex="1" parent="WIyWlLk6GJQsqaUBKTNV-1">
          <mxGeometry x="2010" y="2970" width="160" height="70" as="geometry">
            <mxRectangle x="340" y="380" width="170" height="26" as="alternateBounds" />
          </mxGeometry>
        </mxCell>
        <mxCell id="3Vpd5qUnarcpiOeI3HFZ-194" value="" style="line;html=1;strokeWidth=1;align=left;verticalAlign=middle;spacingTop=-1;spacingLeft=3;spacingRight=3;rotatable=0;labelPosition=right;points=[];portConstraint=eastwest;" vertex="1" parent="3Vpd5qUnarcpiOeI3HFZ-193">
          <mxGeometry y="26" width="160" height="8" as="geometry" />
        </mxCell>
        <mxCell id="3Vpd5qUnarcpiOeI3HFZ-195" value="Controllers" style="swimlane;fontStyle=0;align=center;verticalAlign=top;childLayout=stackLayout;horizontal=1;startSize=26;horizontalStack=0;resizeParent=1;resizeLast=0;collapsible=1;marginBottom=0;rounded=0;shadow=0;strokeWidth=1;" vertex="1" parent="WIyWlLk6GJQsqaUBKTNV-1">
          <mxGeometry x="1890" y="2530" width="160" height="70" as="geometry">
            <mxRectangle x="340" y="380" width="170" height="26" as="alternateBounds" />
          </mxGeometry>
        </mxCell>
        <mxCell id="3Vpd5qUnarcpiOeI3HFZ-196" value="" style="line;html=1;strokeWidth=1;align=left;verticalAlign=middle;spacingTop=-1;spacingLeft=3;spacingRight=3;rotatable=0;labelPosition=right;points=[];portConstraint=eastwest;" vertex="1" parent="3Vpd5qUnarcpiOeI3HFZ-195">
          <mxGeometry y="26" width="160" height="8" as="geometry" />
        </mxCell>
        <mxCell id="3Vpd5qUnarcpiOeI3HFZ-197" value="DbManager" style="swimlane;fontStyle=0;align=center;verticalAlign=top;childLayout=stackLayout;horizontal=1;startSize=26;horizontalStack=0;resizeParent=1;resizeLast=0;collapsible=1;marginBottom=0;rounded=0;shadow=0;strokeWidth=1;" vertex="1" parent="WIyWlLk6GJQsqaUBKTNV-1">
          <mxGeometry x="1770" y="2970" width="160" height="70" as="geometry">
            <mxRectangle x="340" y="380" width="170" height="26" as="alternateBounds" />
          </mxGeometry>
        </mxCell>
        <mxCell id="3Vpd5qUnarcpiOeI3HFZ-198" value="" style="line;html=1;strokeWidth=1;align=left;verticalAlign=middle;spacingTop=-1;spacingLeft=3;spacingRight=3;rotatable=0;labelPosition=right;points=[];portConstraint=eastwest;" vertex="1" parent="3Vpd5qUnarcpiOeI3HFZ-197">
          <mxGeometry y="26" width="160" height="8" as="geometry" />
        </mxCell>
        <mxCell id="3Vpd5qUnarcpiOeI3HFZ-199" value="Services" style="swimlane;fontStyle=0;align=center;verticalAlign=top;childLayout=stackLayout;horizontal=1;startSize=26;horizontalStack=0;resizeParent=1;resizeLast=0;collapsible=1;marginBottom=0;rounded=0;shadow=0;strokeWidth=1;" vertex="1" parent="WIyWlLk6GJQsqaUBKTNV-1">
          <mxGeometry x="1890" y="2660" width="160" height="70" as="geometry">
            <mxRectangle x="340" y="380" width="170" height="26" as="alternateBounds" />
          </mxGeometry>
        </mxCell>
        <mxCell id="3Vpd5qUnarcpiOeI3HFZ-200" value="" style="line;html=1;strokeWidth=1;align=left;verticalAlign=middle;spacingTop=-1;spacingLeft=3;spacingRight=3;rotatable=0;labelPosition=right;points=[];portConstraint=eastwest;" vertex="1" parent="3Vpd5qUnarcpiOeI3HFZ-199">
          <mxGeometry y="26" width="160" height="8" as="geometry" />
        </mxCell>
        <mxCell id="3Vpd5qUnarcpiOeI3HFZ-202" value="DTO" style="swimlane;fontStyle=0;align=center;verticalAlign=top;childLayout=stackLayout;horizontal=1;startSize=26;horizontalStack=0;resizeParent=1;resizeLast=0;collapsible=1;marginBottom=0;rounded=0;shadow=0;strokeWidth=1;" vertex="1" parent="WIyWlLk6GJQsqaUBKTNV-1">
          <mxGeometry x="1610" y="2660" width="160" height="70" as="geometry">
            <mxRectangle x="340" y="380" width="170" height="26" as="alternateBounds" />
          </mxGeometry>
        </mxCell>
        <mxCell id="3Vpd5qUnarcpiOeI3HFZ-203" value="" style="line;html=1;strokeWidth=1;align=left;verticalAlign=middle;spacingTop=-1;spacingLeft=3;spacingRight=3;rotatable=0;labelPosition=right;points=[];portConstraint=eastwest;" vertex="1" parent="3Vpd5qUnarcpiOeI3HFZ-202">
          <mxGeometry y="26" width="160" height="8" as="geometry" />
        </mxCell>
        <mxCell id="3Vpd5qUnarcpiOeI3HFZ-212" value="&lt;font style=&quot;font-size: 24px;&quot;&gt;Simplyfied Class diagram&lt;/font&gt;" style="text;html=1;align=center;verticalAlign=middle;resizable=0;points=[];autosize=1;strokeColor=none;fillColor=none;" vertex="1" parent="WIyWlLk6GJQsqaUBKTNV-1">
          <mxGeometry x="1825" y="2440" width="290" height="40" as="geometry" />
        </mxCell>
        <mxCell id="3Vpd5qUnarcpiOeI3HFZ-213" value="&lt;font style=&quot;font-size: 48px;&quot;&gt;Full Class diaiagram&lt;/font&gt;" style="text;html=1;align=center;verticalAlign=middle;resizable=0;points=[];autosize=1;strokeColor=none;fillColor=none;" vertex="1" parent="WIyWlLk6GJQsqaUBKTNV-1">
          <mxGeometry x="1420" y="855" width="460" height="70" as="geometry" />
        </mxCell>
        <mxCell id="3Vpd5qUnarcpiOeI3HFZ-221" value="IRepository" style="swimlane;fontStyle=0;align=center;verticalAlign=top;childLayout=stackLayout;horizontal=1;startSize=26;horizontalStack=0;resizeParent=1;resizeLast=0;collapsible=1;marginBottom=0;rounded=0;shadow=0;strokeWidth=1;" vertex="1" parent="WIyWlLk6GJQsqaUBKTNV-1">
          <mxGeometry x="2180" y="2660" width="160" height="70" as="geometry">
            <mxRectangle x="340" y="380" width="170" height="26" as="alternateBounds" />
          </mxGeometry>
        </mxCell>
        <mxCell id="3Vpd5qUnarcpiOeI3HFZ-222" value="" style="line;html=1;strokeWidth=1;align=left;verticalAlign=middle;spacingTop=-1;spacingLeft=3;spacingRight=3;rotatable=0;labelPosition=right;points=[];portConstraint=eastwest;" vertex="1" parent="3Vpd5qUnarcpiOeI3HFZ-221">
          <mxGeometry y="26" width="160" height="8" as="geometry" />
        </mxCell>
        <mxCell id="3Vpd5qUnarcpiOeI3HFZ-223" value="" style="endArrow=none;html=1;rounded=0;entryX=0.5;entryY=1;entryDx=0;entryDy=0;exitX=0.5;exitY=0;exitDx=0;exitDy=0;fontStyle=1" edge="1" parent="WIyWlLk6GJQsqaUBKTNV-1" source="3Vpd5qUnarcpiOeI3HFZ-199" target="3Vpd5qUnarcpiOeI3HFZ-195">
          <mxGeometry width="50" height="50" relative="1" as="geometry">
            <mxPoint x="1750" y="2780" as="sourcePoint" />
            <mxPoint x="1800" y="2730" as="targetPoint" />
          </mxGeometry>
        </mxCell>
        <mxCell id="3Vpd5qUnarcpiOeI3HFZ-230" value="1" style="edgeLabel;html=1;align=center;verticalAlign=middle;resizable=0;points=[];" vertex="1" connectable="0" parent="3Vpd5qUnarcpiOeI3HFZ-223">
          <mxGeometry x="0.58" y="2" relative="1" as="geometry">
            <mxPoint x="-8" y="-3" as="offset" />
          </mxGeometry>
        </mxCell>
        <mxCell id="3Vpd5qUnarcpiOeI3HFZ-232" value="1..*" style="edgeLabel;html=1;align=center;verticalAlign=middle;resizable=0;points=[];" vertex="1" connectable="0" parent="3Vpd5qUnarcpiOeI3HFZ-223">
          <mxGeometry x="-0.5667" y="2" relative="1" as="geometry">
            <mxPoint x="-258" y="93" as="offset" />
          </mxGeometry>
        </mxCell>
        <mxCell id="3Vpd5qUnarcpiOeI3HFZ-224" value="" style="endArrow=none;html=1;rounded=0;entryX=0.5;entryY=1;entryDx=0;entryDy=0;exitX=0.5;exitY=0;exitDx=0;exitDy=0;" edge="1" parent="WIyWlLk6GJQsqaUBKTNV-1" source="3Vpd5qUnarcpiOeI3HFZ-191">
          <mxGeometry width="50" height="50" relative="1" as="geometry">
            <mxPoint x="1969.5" y="2790" as="sourcePoint" />
            <mxPoint x="1969.5" y="2730" as="targetPoint" />
          </mxGeometry>
        </mxCell>
        <mxCell id="3Vpd5qUnarcpiOeI3HFZ-225" value="" style="endArrow=none;html=1;rounded=0;entryX=0;entryY=0.5;entryDx=0;entryDy=0;exitX=1;exitY=0.5;exitDx=0;exitDy=0;" edge="1" parent="WIyWlLk6GJQsqaUBKTNV-1" source="3Vpd5qUnarcpiOeI3HFZ-199" target="3Vpd5qUnarcpiOeI3HFZ-221">
          <mxGeometry width="50" height="50" relative="1" as="geometry">
            <mxPoint x="2179.5" y="2756" as="sourcePoint" />
            <mxPoint x="2179" y="2686" as="targetPoint" />
          </mxGeometry>
        </mxCell>
        <mxCell id="3Vpd5qUnarcpiOeI3HFZ-229" style="edgeStyle=orthogonalEdgeStyle;rounded=0;orthogonalLoop=1;jettySize=auto;html=1;entryX=1;entryY=0.885;entryDx=0;entryDy=0;entryPerimeter=0;" edge="1" parent="WIyWlLk6GJQsqaUBKTNV-1" source="1k3d_LjwINiWORwzEv2y-37" target="1k3d_LjwINiWORwzEv2y-25">
          <mxGeometry relative="1" as="geometry" />
        </mxCell>
        <mxCell id="3Vpd5qUnarcpiOeI3HFZ-233" value="1" style="edgeLabel;html=1;align=center;verticalAlign=middle;resizable=0;points=[];" vertex="1" connectable="0" parent="WIyWlLk6GJQsqaUBKTNV-1">
          <mxGeometry x="1970" y="2750" as="geometry">
            <mxPoint x="89" y="-68" as="offset" />
          </mxGeometry>
        </mxCell>
        <mxCell id="3Vpd5qUnarcpiOeI3HFZ-234" value="1..*" style="edgeLabel;html=1;align=center;verticalAlign=middle;resizable=0;points=[];" vertex="1" connectable="0" parent="WIyWlLk6GJQsqaUBKTNV-1">
          <mxGeometry x="1970" y="2660" as="geometry">
            <mxPoint x="-10" y="127" as="offset" />
          </mxGeometry>
        </mxCell>
        <mxCell id="3Vpd5qUnarcpiOeI3HFZ-235" value="" style="endArrow=diamondThin;endFill=0;endSize=24;html=1;rounded=0;exitX=0.5;exitY=0;exitDx=0;exitDy=0;edgeStyle=orthogonalEdgeStyle;" edge="1" parent="WIyWlLk6GJQsqaUBKTNV-1" source="3Vpd5qUnarcpiOeI3HFZ-193">
          <mxGeometry width="160" relative="1" as="geometry">
            <mxPoint x="1880" y="2790" as="sourcePoint" />
            <mxPoint x="1990" y="2870" as="targetPoint" />
            <Array as="points">
              <mxPoint x="2090" y="2920" />
              <mxPoint x="1990" y="2920" />
              <mxPoint x="1990" y="2870" />
            </Array>
          </mxGeometry>
        </mxCell>
        <mxCell id="3Vpd5qUnarcpiOeI3HFZ-236" value="" style="endArrow=diamondThin;endFill=0;endSize=24;html=1;rounded=0;exitX=0.44;exitY=-0.043;exitDx=0;exitDy=0;exitPerimeter=0;edgeStyle=orthogonalEdgeStyle;" edge="1" parent="WIyWlLk6GJQsqaUBKTNV-1" source="3Vpd5qUnarcpiOeI3HFZ-197">
          <mxGeometry width="160" relative="1" as="geometry">
            <mxPoint x="1880" y="2790" as="sourcePoint" />
            <mxPoint x="1950" y="2870" as="targetPoint" />
            <Array as="points">
              <mxPoint x="1840" y="2920" />
              <mxPoint x="1950" y="2920" />
            </Array>
          </mxGeometry>
        </mxCell>
        <mxCell id="3Vpd5qUnarcpiOeI3HFZ-258" style="edgeStyle=orthogonalEdgeStyle;rounded=0;orthogonalLoop=1;jettySize=auto;html=1;entryX=0.881;entryY=0.01;entryDx=0;entryDy=0;entryPerimeter=0;" edge="1" parent="WIyWlLk6GJQsqaUBKTNV-1" source="3Vpd5qUnarcpiOeI3HFZ-237" target="1k3d_LjwINiWORwzEv2y-105">
          <mxGeometry relative="1" as="geometry">
            <mxPoint x="1510" y="1400" as="targetPoint" />
            <Array as="points">
              <mxPoint x="2030" y="1350" />
              <mxPoint x="1510" y="1350" />
              <mxPoint x="1510" y="1407" />
            </Array>
          </mxGeometry>
        </mxCell>
        <mxCell id="3Vpd5qUnarcpiOeI3HFZ-259" style="edgeStyle=orthogonalEdgeStyle;rounded=0;orthogonalLoop=1;jettySize=auto;html=1;entryX=0.619;entryY=-0.029;entryDx=0;entryDy=0;entryPerimeter=0;" edge="1" parent="WIyWlLk6GJQsqaUBKTNV-1" source="3Vpd5qUnarcpiOeI3HFZ-237" target="1k3d_LjwINiWORwzEv2y-102">
          <mxGeometry relative="1" as="geometry">
            <mxPoint x="1940" y="1400" as="targetPoint" />
            <Array as="points">
              <mxPoint x="2051" y="1364" />
              <mxPoint x="1940" y="1364" />
              <mxPoint x="1940" y="1404" />
            </Array>
          </mxGeometry>
        </mxCell>
        <mxCell id="3Vpd5qUnarcpiOeI3HFZ-237" value="ILoginRepository" style="swimlane;fontStyle=0;align=center;verticalAlign=top;childLayout=stackLayout;horizontal=1;startSize=26;horizontalStack=0;resizeParent=1;resizeLast=0;collapsible=1;marginBottom=0;rounded=0;shadow=0;strokeWidth=1;" vertex="1" parent="WIyWlLk6GJQsqaUBKTNV-1">
          <mxGeometry x="1960" y="1250" width="182.75" height="72" as="geometry">
            <mxRectangle x="340" y="380" width="170" height="26" as="alternateBounds" />
          </mxGeometry>
        </mxCell>
        <mxCell id="3Vpd5qUnarcpiOeI3HFZ-238" value="" style="line;html=1;strokeWidth=1;align=left;verticalAlign=middle;spacingTop=-1;spacingLeft=3;spacingRight=3;rotatable=0;labelPosition=right;points=[];portConstraint=eastwest;" vertex="1" parent="3Vpd5qUnarcpiOeI3HFZ-237">
          <mxGeometry y="26" width="182.75" height="8" as="geometry" />
        </mxCell>
        <mxCell id="3Vpd5qUnarcpiOeI3HFZ-260" style="edgeStyle=orthogonalEdgeStyle;rounded=0;orthogonalLoop=1;jettySize=auto;html=1;exitX=0;exitY=0.5;exitDx=0;exitDy=0;" edge="1" parent="WIyWlLk6GJQsqaUBKTNV-1" source="3Vpd5qUnarcpiOeI3HFZ-239">
          <mxGeometry relative="1" as="geometry">
            <mxPoint x="1320" y="1380" as="targetPoint" />
            <Array as="points">
              <mxPoint x="1400" y="1276" />
              <mxPoint x="1400" y="1380" />
              <mxPoint x="1320" y="1380" />
            </Array>
          </mxGeometry>
        </mxCell>
        <mxCell id="3Vpd5qUnarcpiOeI3HFZ-261" style="edgeStyle=orthogonalEdgeStyle;rounded=0;orthogonalLoop=1;jettySize=auto;html=1;" edge="1" parent="WIyWlLk6GJQsqaUBKTNV-1" source="3Vpd5qUnarcpiOeI3HFZ-239">
          <mxGeometry relative="1" as="geometry">
            <mxPoint x="1460" y="1406" as="targetPoint" />
            <Array as="points">
              <mxPoint x="1580" y="1330" />
              <mxPoint x="1460" y="1330" />
            </Array>
          </mxGeometry>
        </mxCell>
        <mxCell id="3Vpd5qUnarcpiOeI3HFZ-239" value="IProjectRepository" style="swimlane;fontStyle=0;align=center;verticalAlign=top;childLayout=stackLayout;horizontal=1;startSize=26;horizontalStack=0;resizeParent=1;resizeLast=0;collapsible=1;marginBottom=0;rounded=0;shadow=0;strokeWidth=1;" vertex="1" parent="WIyWlLk6GJQsqaUBKTNV-1">
          <mxGeometry x="1490" y="1240" width="182.75" height="72" as="geometry">
            <mxRectangle x="340" y="380" width="170" height="26" as="alternateBounds" />
          </mxGeometry>
        </mxCell>
        <mxCell id="3Vpd5qUnarcpiOeI3HFZ-240" value="" style="line;html=1;strokeWidth=1;align=left;verticalAlign=middle;spacingTop=-1;spacingLeft=3;spacingRight=3;rotatable=0;labelPosition=right;points=[];portConstraint=eastwest;" vertex="1" parent="3Vpd5qUnarcpiOeI3HFZ-239">
          <mxGeometry y="26" width="182.75" height="8" as="geometry" />
        </mxCell>
        <mxCell id="3Vpd5qUnarcpiOeI3HFZ-262" style="edgeStyle=orthogonalEdgeStyle;rounded=0;orthogonalLoop=1;jettySize=auto;html=1;entryX=0.698;entryY=-0.01;entryDx=0;entryDy=0;entryPerimeter=0;" edge="1" parent="WIyWlLk6GJQsqaUBKTNV-1" source="3Vpd5qUnarcpiOeI3HFZ-241" target="1k3d_LjwINiWORwzEv2y-105">
          <mxGeometry relative="1" as="geometry">
            <mxPoint x="1482" y="1400" as="targetPoint" />
            <Array as="points">
              <mxPoint x="1811" y="1340" />
              <mxPoint x="1482" y="1340" />
            </Array>
          </mxGeometry>
        </mxCell>
        <mxCell id="3Vpd5qUnarcpiOeI3HFZ-263" style="edgeStyle=orthogonalEdgeStyle;rounded=0;orthogonalLoop=1;jettySize=auto;html=1;entryX=1;entryY=0.5;entryDx=0;entryDy=0;" edge="1" parent="WIyWlLk6GJQsqaUBKTNV-1" source="3Vpd5qUnarcpiOeI3HFZ-241" target="1k3d_LjwINiWORwzEv2y-114">
          <mxGeometry relative="1" as="geometry">
            <Array as="points">
              <mxPoint x="1811" y="1230" />
              <mxPoint x="1380" y="1230" />
              <mxPoint x="1380" y="1365" />
            </Array>
          </mxGeometry>
        </mxCell>
        <mxCell id="3Vpd5qUnarcpiOeI3HFZ-241" value="ISubtaskRepository" style="swimlane;fontStyle=0;align=center;verticalAlign=top;childLayout=stackLayout;horizontal=1;startSize=26;horizontalStack=0;resizeParent=1;resizeLast=0;collapsible=1;marginBottom=0;rounded=0;shadow=0;strokeWidth=1;" vertex="1" parent="WIyWlLk6GJQsqaUBKTNV-1">
          <mxGeometry x="1720" y="1240" width="182.75" height="72" as="geometry">
            <mxRectangle x="340" y="380" width="170" height="26" as="alternateBounds" />
          </mxGeometry>
        </mxCell>
        <mxCell id="3Vpd5qUnarcpiOeI3HFZ-242" value="" style="line;html=1;strokeWidth=1;align=left;verticalAlign=middle;spacingTop=-1;spacingLeft=3;spacingRight=3;rotatable=0;labelPosition=right;points=[];portConstraint=eastwest;" vertex="1" parent="3Vpd5qUnarcpiOeI3HFZ-241">
          <mxGeometry y="26" width="182.75" height="8" as="geometry" />
        </mxCell>
        <mxCell id="3Vpd5qUnarcpiOeI3HFZ-264" style="edgeStyle=orthogonalEdgeStyle;rounded=0;orthogonalLoop=1;jettySize=auto;html=1;entryX=1;entryY=0.5;entryDx=0;entryDy=0;" edge="1" parent="WIyWlLk6GJQsqaUBKTNV-1" source="3Vpd5qUnarcpiOeI3HFZ-244" target="1k3d_LjwINiWORwzEv2y-120">
          <mxGeometry relative="1" as="geometry" />
        </mxCell>
        <mxCell id="3Vpd5qUnarcpiOeI3HFZ-265" style="edgeStyle=orthogonalEdgeStyle;rounded=0;orthogonalLoop=1;jettySize=auto;html=1;entryX=0.619;entryY=-0.029;entryDx=0;entryDy=0;entryPerimeter=0;" edge="1" parent="WIyWlLk6GJQsqaUBKTNV-1" source="3Vpd5qUnarcpiOeI3HFZ-244" target="1k3d_LjwINiWORwzEv2y-117">
          <mxGeometry relative="1" as="geometry">
            <Array as="points">
              <mxPoint x="2290" y="1380" />
              <mxPoint x="1719" y="1380" />
            </Array>
          </mxGeometry>
        </mxCell>
        <mxCell id="3Vpd5qUnarcpiOeI3HFZ-244" value="ITaskRepository" style="swimlane;fontStyle=0;align=center;verticalAlign=top;childLayout=stackLayout;horizontal=1;startSize=26;horizontalStack=0;resizeParent=1;resizeLast=0;collapsible=1;marginBottom=0;rounded=0;shadow=0;strokeWidth=1;" vertex="1" parent="WIyWlLk6GJQsqaUBKTNV-1">
          <mxGeometry x="2217.25" y="1250" width="182.75" height="72" as="geometry">
            <mxRectangle x="340" y="380" width="170" height="26" as="alternateBounds" />
          </mxGeometry>
        </mxCell>
        <mxCell id="3Vpd5qUnarcpiOeI3HFZ-245" value="" style="line;html=1;strokeWidth=1;align=left;verticalAlign=middle;spacingTop=-1;spacingLeft=3;spacingRight=3;rotatable=0;labelPosition=right;points=[];portConstraint=eastwest;" vertex="1" parent="3Vpd5qUnarcpiOeI3HFZ-244">
          <mxGeometry y="26" width="182.75" height="8" as="geometry" />
        </mxCell>
        <mxCell id="3Vpd5qUnarcpiOeI3HFZ-266" style="edgeStyle=orthogonalEdgeStyle;rounded=0;orthogonalLoop=1;jettySize=auto;html=1;entryX=1;entryY=0.75;entryDx=0;entryDy=0;" edge="1" parent="WIyWlLk6GJQsqaUBKTNV-1" source="3Vpd5qUnarcpiOeI3HFZ-246" target="1k3d_LjwINiWORwzEv2y-120">
          <mxGeometry relative="1" as="geometry">
            <Array as="points">
              <mxPoint x="2561" y="1459" />
            </Array>
          </mxGeometry>
        </mxCell>
        <mxCell id="3Vpd5qUnarcpiOeI3HFZ-246" value="IUserRepository" style="swimlane;fontStyle=0;align=center;verticalAlign=top;childLayout=stackLayout;horizontal=1;startSize=26;horizontalStack=0;resizeParent=1;resizeLast=0;collapsible=1;marginBottom=0;rounded=0;shadow=0;strokeWidth=1;" vertex="1" parent="WIyWlLk6GJQsqaUBKTNV-1">
          <mxGeometry x="2470" y="1250" width="182.75" height="72" as="geometry">
            <mxRectangle x="340" y="380" width="170" height="26" as="alternateBounds" />
          </mxGeometry>
        </mxCell>
        <mxCell id="3Vpd5qUnarcpiOeI3HFZ-247" value="" style="line;html=1;strokeWidth=1;align=left;verticalAlign=middle;spacingTop=-1;spacingLeft=3;spacingRight=3;rotatable=0;labelPosition=right;points=[];portConstraint=eastwest;" vertex="1" parent="3Vpd5qUnarcpiOeI3HFZ-246">
          <mxGeometry y="26" width="182.75" height="8" as="geometry" />
        </mxCell>
        <mxCell id="3Vpd5qUnarcpiOeI3HFZ-249" value="" style="endArrow=none;html=1;rounded=0;exitX=0.5;exitY=0;exitDx=0;exitDy=0;entryX=0;entryY=0.5;entryDx=0;entryDy=0;" edge="1" parent="WIyWlLk6GJQsqaUBKTNV-1" source="3Vpd5qUnarcpiOeI3HFZ-202" target="3Vpd5qUnarcpiOeI3HFZ-195">
          <mxGeometry width="50" height="50" relative="1" as="geometry">
            <mxPoint x="1700" y="2630" as="sourcePoint" />
            <mxPoint x="1750" y="2580" as="targetPoint" />
            <Array as="points">
              <mxPoint x="1690" y="2565" />
            </Array>
          </mxGeometry>
        </mxCell>
        <mxCell id="3Vpd5qUnarcpiOeI3HFZ-250" value="" style="endArrow=none;html=1;rounded=0;exitX=1;exitY=0.5;exitDx=0;exitDy=0;entryX=0;entryY=0.5;entryDx=0;entryDy=0;" edge="1" parent="WIyWlLk6GJQsqaUBKTNV-1" source="3Vpd5qUnarcpiOeI3HFZ-202" target="3Vpd5qUnarcpiOeI3HFZ-199">
          <mxGeometry width="50" height="50" relative="1" as="geometry">
            <mxPoint x="1890" y="2760" as="sourcePoint" />
            <mxPoint x="1940" y="2710" as="targetPoint" />
          </mxGeometry>
        </mxCell>
        <mxCell id="3Vpd5qUnarcpiOeI3HFZ-251" value="" style="endArrow=none;html=1;rounded=0;exitX=0.5;exitY=1;exitDx=0;exitDy=0;entryX=0;entryY=0.5;entryDx=0;entryDy=0;" edge="1" parent="WIyWlLk6GJQsqaUBKTNV-1" source="3Vpd5qUnarcpiOeI3HFZ-202" target="3Vpd5qUnarcpiOeI3HFZ-191">
          <mxGeometry width="50" height="50" relative="1" as="geometry">
            <mxPoint x="1890" y="2760" as="sourcePoint" />
            <mxPoint x="1940" y="2710" as="targetPoint" />
            <Array as="points">
              <mxPoint x="1690" y="2835" />
            </Array>
          </mxGeometry>
        </mxCell>
        <mxCell id="3Vpd5qUnarcpiOeI3HFZ-252" value="1" style="edgeLabel;html=1;align=center;verticalAlign=middle;resizable=0;points=[];" vertex="1" connectable="0" parent="WIyWlLk6GJQsqaUBKTNV-1">
          <mxGeometry x="1790" y="2660.0000000000005" as="geometry">
            <mxPoint x="90" y="-107" as="offset" />
          </mxGeometry>
        </mxCell>
        <mxCell id="3Vpd5qUnarcpiOeI3HFZ-253" value="1..*" style="edgeLabel;html=1;align=center;verticalAlign=middle;resizable=0;points=[];" vertex="1" connectable="0" parent="WIyWlLk6GJQsqaUBKTNV-1">
          <mxGeometry x="1770" y="2730" as="geometry">
            <mxPoint x="-92" y="-78" as="offset" />
          </mxGeometry>
        </mxCell>
        <mxCell id="3Vpd5qUnarcpiOeI3HFZ-254" value="1" style="edgeLabel;html=1;align=center;verticalAlign=middle;resizable=0;points=[];" vertex="1" connectable="0" parent="WIyWlLk6GJQsqaUBKTNV-1">
          <mxGeometry x="1970" y="2610" as="geometry">
            <mxPoint x="-91" y="210" as="offset" />
          </mxGeometry>
        </mxCell>
        <mxCell id="3Vpd5qUnarcpiOeI3HFZ-255" value="1..*" style="edgeLabel;html=1;align=center;verticalAlign=middle;resizable=0;points=[];" vertex="1" connectable="0" parent="WIyWlLk6GJQsqaUBKTNV-1">
          <mxGeometry x="1970" y="2650.3999999999996" as="geometry" />
        </mxCell>
        <mxCell id="3Vpd5qUnarcpiOeI3HFZ-256" value="1..*" style="edgeLabel;html=1;align=center;verticalAlign=middle;resizable=0;points=[];" vertex="1" connectable="0" parent="WIyWlLk6GJQsqaUBKTNV-1">
          <mxGeometry x="1730" y="2760" as="geometry">
            <mxPoint x="58" y="-74" as="offset" />
          </mxGeometry>
        </mxCell>
        <mxCell id="3Vpd5qUnarcpiOeI3HFZ-257" value="1" style="edgeLabel;html=1;align=center;verticalAlign=middle;resizable=0;points=[];" vertex="1" connectable="0" parent="WIyWlLk6GJQsqaUBKTNV-1">
          <mxGeometry x="1970" y="2750" as="geometry">
            <mxPoint x="-87" y="-67" as="offset" />
          </mxGeometry>
        </mxCell>
        <mxCell id="3Vpd5qUnarcpiOeI3HFZ-267" value="1" style="edgeLabel;html=1;align=center;verticalAlign=middle;resizable=0;points=[];" vertex="1" connectable="0" parent="WIyWlLk6GJQsqaUBKTNV-1">
          <mxGeometry x="1970" y="2750" as="geometry">
            <mxPoint x="-12" y="-9" as="offset" />
          </mxGeometry>
        </mxCell>
        <mxCell id="3Vpd5qUnarcpiOeI3HFZ-270" value="1..*" style="edgeLabel;html=1;align=center;verticalAlign=middle;resizable=0;points=[];" vertex="1" connectable="0" parent="WIyWlLk6GJQsqaUBKTNV-1">
          <mxGeometry x="2110" y="2760" as="geometry">
            <mxPoint x="58" y="-74" as="offset" />
          </mxGeometry>
        </mxCell>
      </root>
    </mxGraphModel>
  </diagram>
</mxfile>
